<svg width="36" height="36" viewBox="0 0 36 36" fill="none" xmlns="http://www.w3.org/2000/svg">
<g id="Phone call">
<path id="Vector (Stroke)" fill-rule="evenodd" clip-rule="evenodd" d="M13.1146 7.64085C13.1683 7.74045 13.2253 7.87059 13.2845 8.03686C13.2965 8.07082 13.3089 8.10548 13.3215 8.14079C13.6281 9.00134 14.0722 10.2477 14.1647 11.2611L12.4943 14.2688C12.2583 14.6938 12.2429 15.2068 12.453 15.6451C13.4006 17.6219 14.3358 19.1343 15.6007 20.3992C16.8655 21.6642 18.378 22.5994 20.3549 23.547C20.7935 23.7572 21.3067 23.7417 21.7318 23.5054L24.7374 21.8344C25.7402 21.9258 26.9679 22.3609 27.8291 22.6661C27.8753 22.6825 27.9204 22.6985 27.9644 22.714C28.1289 22.7722 28.2581 22.8287 28.3572 22.882C28.4264 22.9193 28.4722 22.9504 28.5009 22.9727V24.4526C28.5009 27.1606 26.3644 28.9202 24.2818 28.391C20.2633 27.3609 16.5954 25.2699 13.6621 22.3367C10.7439 19.4188 8.65926 15.774 7.6235 11.7804C7.61919 11.7599 7.61444 11.7395 7.60924 11.7191C7.07907 9.63649 8.84015 7.49912 11.5462 7.49912H13.0256C13.0475 7.5277 13.078 7.57291 13.1146 7.64085ZM4.68425 12.3843C3.59999 7.91878 7.48374 4.5 11.5462 4.5H13.0841C13.9657 4.5 14.6756 4.87167 15.1869 5.41627C15.6525 5.91224 15.9285 6.52116 16.1101 7.03161C16.1294 7.08597 16.1514 7.14693 16.1755 7.2139C16.4921 8.09188 17.1811 10.003 17.1811 11.6185C17.1811 11.8733 17.1161 12.1238 16.9924 12.3466L15.498 15.0374C16.2372 16.4824 16.9168 17.4739 17.7214 18.2786C18.5259 19.0831 19.5174 19.7627 20.9622 20.5018L23.6509 19.0069C23.8738 18.883 24.1246 18.818 24.3796 18.818C25.9873 18.818 27.888 19.5004 28.7682 19.8164C28.8406 19.8424 28.906 19.8659 28.9639 19.8863C29.4767 20.0676 30.086 20.3442 30.5825 20.8105C31.1264 21.3213 31.5 22.0318 31.5 22.9148V24.4526C31.5 28.5408 28.0426 32.4431 23.5406 31.2971L23.5383 31.2965C18.9987 30.1331 14.8552 27.771 11.5414 24.4575C8.22767 21.1439 5.86543 17.0007 4.7019 12.4614C4.69531 12.4357 4.68943 12.41 4.68425 12.3843Z" fill="#675D59"/>
</g>
</svg>
