<svg width="36" height="36" viewBox="0 0 36 36" fill="none" xmlns="http://www.w3.org/2000/svg">
<g id="Comment">
<g id="Vector">
<path fill-rule="evenodd" clip-rule="evenodd" d="M17.413 7.5C11.0043 7.5 6 12.3027 6 18C6 23.6973 11.0043 28.5 17.413 28.5C20.2027 28.5 22.7451 27.5807 24.7172 26.0672C25.0852 25.7847 25.5631 25.6885 26.0118 25.8064L29.0784 26.6125L27.847 23.3264C27.7051 22.9477 27.7221 22.5277 27.8942 22.1618C28.4944 20.8851 28.8261 19.479 28.8261 18C28.8261 12.3027 23.8218 7.5 17.413 7.5ZM3 18C3 10.4425 9.55843 4.5 17.413 4.5C25.2677 4.5 31.8261 10.4425 31.8261 18C31.8261 19.707 31.4873 21.3411 30.8702 22.8447L32.9046 28.2736C33.1013 28.7986 32.9889 29.3895 32.6131 29.8055C32.2373 30.2215 31.6609 30.3932 31.1187 30.2507L25.9363 28.8885C23.5427 30.5344 20.5923 31.5 17.413 31.5C9.55843 31.5 3 25.5575 3 18Z" fill="#675D59"/>
<path d="M12.6 18.3C12.6 19.2941 11.7941 20.1 10.8 20.1C9.80589 20.1 9 19.2941 9 18.3C9 17.3059 9.80589 16.5 10.8 16.5C11.7941 16.5 12.6 17.3059 12.6 18.3Z" fill="#675D59"/>
<path d="M19.1999 18.3C19.1999 19.2941 18.394 20.1 17.3999 20.1C16.4057 20.1 15.5999 19.2941 15.5999 18.3C15.5999 17.3059 16.4057 16.5 17.3999 16.5C18.394 16.5 19.1999 17.3059 19.1999 18.3Z" fill="#675D59"/>
<path d="M25.7997 18.3C25.7997 19.2941 24.9938 20.1 23.9997 20.1C23.0056 20.1 22.1997 19.2941 22.1997 18.3C22.1997 17.3059 23.0056 16.5 23.9997 16.5C24.9938 16.5 25.7997 17.3059 25.7997 18.3Z" fill="#675D59"/>
</g>
</g>
</svg>
