<svg width="23" height="22" viewBox="0 0 23 22" fill="none" xmlns="http://www.w3.org/2000/svg">
<g filter="url(#filter0_d_8482_10227)">
<path fill-rule="evenodd" clip-rule="evenodd" d="M5 3C4.44772 3 4 3.44772 4 4V17C4 17.5523 4.44772 18 5 18H17C17.5523 18 18 17.5523 18 17V6.5C18 5.94772 18.4477 5.5 19 5.5C19.5523 5.5 20 5.94772 20 6.5V17C20 18.6569 18.6569 20 17 20H5C3.34315 20 2 18.6569 2 17V4C2 2.34315 3.34315 1 5 1H14C14.5523 1 15 1.44772 15 2C15 2.55228 14.5523 3 14 3H5Z" fill="#FBFCFF"/>
<path fill-rule="evenodd" clip-rule="evenodd" d="M20.7071 0.292893C21.0976 0.683417 21.0976 1.31658 20.7071 1.70711L11.7071 10.7071C11.3166 11.0976 10.6834 11.0976 10.2929 10.7071C9.90237 10.3166 9.90237 9.68342 10.2929 9.29289L19.2929 0.292893C19.6834 -0.0976311 20.3166 -0.0976311 20.7071 0.292893Z" fill="#FBFCFF"/>
</g>
<defs>
<filter id="filter0_d_8482_10227" x="0" y="0" width="23" height="24" filterUnits="userSpaceOnUse" color-interpolation-filters="sRGB">
<feFlood flood-opacity="0" result="BackgroundImageFix"/>
<feColorMatrix in="SourceAlpha" type="matrix" values="0 0 0 0 0 0 0 0 0 0 0 0 0 0 0 0 0 0 127 0" result="hardAlpha"/>
<feOffset dy="2"/>
<feGaussianBlur stdDeviation="1"/>
<feComposite in2="hardAlpha" operator="out"/>
<feColorMatrix type="matrix" values="0 0 0 0 0.1875 0 0 0 0 0.1875 0 0 0 0 0.1875 0 0 0 0.1 0"/>
<feBlend mode="normal" in2="BackgroundImageFix" result="effect1_dropShadow_8482_10227"/>
<feBlend mode="normal" in="SourceGraphic" in2="effect1_dropShadow_8482_10227" result="shape"/>
</filter>
</defs>
</svg>
