<svg width="36" height="36" viewBox="0 0 36 36" fill="none" xmlns="http://www.w3.org/2000/svg">
<g id="Email">
<g id="Vector">
<path fill-rule="evenodd" clip-rule="evenodd" d="M3 10.5C3 8.01472 5.01472 6 7.5 6H28.5C30.9853 6 33 8.01472 33 10.5V25.5C33 27.9853 30.9853 30 28.5 30H7.5C5.01472 30 3 27.9853 3 25.5V10.5ZM7.5 9C6.67157 9 6 9.67157 6 10.5V25.5C6 26.3284 6.67157 27 7.5 27H28.5C29.3284 27 30 26.3284 30 25.5V10.5C30 9.67157 29.3284 9 28.5 9H7.5Z" fill="#675D59"/>
<path fill-rule="evenodd" clip-rule="evenodd" d="M17.9123 17.0142L7.06828 6.44714L4.93172 8.55286L16.8355 20.1527C17.4231 20.7253 18.3711 20.729 18.9634 20.161L31.0596 8.56122L28.9404 6.43878L17.9123 17.0142Z" fill="#675D59"/>
</g>
</g>
</svg>
