<svg width="21" height="14" viewBox="0 0 21 14" fill="none" xmlns="http://www.w3.org/2000/svg">
<path d="M1.08984 9.16104C1.08984 10.1354 1.4769 11.0698 2.16587 11.7588C2.85484 12.4478 3.78928 12.8348 4.76363 12.8348C5.73798 12.8348 6.67242 12.4478 7.36138 11.7588C8.05035 11.0698 8.43741 10.1354 8.43741 9.16104M1.08984 9.16104C1.08984 8.1867 1.4769 7.25225 2.16587 6.56329C2.85484 5.87432 3.78928 5.48726 4.76363 5.48726C5.73798 5.48726 6.67242 5.87432 7.36138 6.56329C8.05035 7.25225 8.43741 8.1867 8.43741 9.16104M1.08984 9.16104V1.81348M8.43741 9.16104H12.1112M19.4588 9.16104C19.4588 10.1354 19.0717 11.0698 18.3827 11.7588C17.6938 12.4478 16.7593 12.8348 15.785 12.8348C14.8106 12.8348 13.8762 12.4478 13.1872 11.7588C12.4983 11.0698 12.1112 10.1354 12.1112 9.16104M19.4588 9.16104C19.4588 8.1867 19.0717 7.25225 18.3827 6.56329C17.6938 5.87432 16.7593 5.48726 15.785 5.48726C14.8106 5.48726 13.8762 5.87432 13.1872 6.56329C12.4983 7.25225 12.1112 8.1867 12.1112 9.16104M19.4588 9.16104V1.81348" stroke="#FBFCFF" stroke-width="1.83689" stroke-linecap="round" stroke-linejoin="round"/>
</svg>
