<svg width="12" height="14" viewBox="0 0 12 14" fill="none" xmlns="http://www.w3.org/2000/svg">
<g id="Group 678">
<g id="Vector">
<path fill-rule="evenodd" clip-rule="evenodd" d="M5.99385 1.66683C3.14051 1.66683 0.866577 4.78469 2.60946 7.98572C3.57144 9.75253 4.52263 10.872 5.21737 11.542C5.5384 11.8516 5.8056 12.0661 5.99509 12.2046C6.18584 12.0661 6.45508 11.8513 6.77842 11.5409C7.47627 10.8711 8.43051 9.75193 9.39213 7.98572C11.1334 4.78752 8.85044 1.66683 5.99385 1.66683ZM5.99385 13.0002C5.68321 13.59 5.68259 13.5897 5.68259 13.5897L5.68193 13.5894L5.68047 13.5886L5.67701 13.5867L5.66795 13.5818C5.66096 13.578 5.65209 13.5731 5.6414 13.567C5.62001 13.5548 5.59135 13.538 5.55589 13.5162C5.48498 13.4727 5.38693 13.4091 5.26567 13.3225C5.02309 13.1492 4.68802 12.8839 4.29182 12.5018C3.49874 11.737 2.46498 10.5087 1.43845 8.6233C-0.79571 4.51998 2.14465 0.333496 5.99385 0.333496C9.83982 0.333496 12.7988 4.51715 10.5632 8.6233C9.53632 10.5093 8.49866 11.7379 7.70173 12.5029C7.30362 12.885 6.96666 13.1504 6.72267 13.3236C6.60071 13.4102 6.50208 13.4737 6.43076 13.5173C6.3951 13.539 6.36627 13.5558 6.34478 13.5679C6.33403 13.574 6.32512 13.5789 6.3181 13.5827L6.309 13.5876L6.30554 13.5895L6.30408 13.5903L6.30341 13.5906C6.30341 13.5906 6.3028 13.5909 5.99385 13.0002ZM5.99385 13.0002L6.3028 13.5909C6.10867 13.6924 5.87704 13.6921 5.68321 13.59L5.99385 13.0002Z" fill="#675D59"/>
<path d="M7.3331 5.66683C7.3331 6.40321 6.73615 7.00016 5.99977 7.00016C5.26339 7.00016 4.66643 6.40321 4.66643 5.66683C4.66643 4.93045 5.26339 4.3335 5.99977 4.3335C6.73615 4.3335 7.3331 4.93045 7.3331 5.66683Z" fill="#675D59"/>
</g>
</g>
</svg>
