<svg width="48" height="48" viewBox="0 0 48 48" fill="none" xmlns="http://www.w3.org/2000/svg">
<path fill-rule="evenodd" clip-rule="evenodd" d="M22.2482 6.34611C26.3721 5.53457 30.6541 6.16006 34.366 8.11832C38.0783 10.0768 40.9938 13.2493 42.6097 17.1C44.2259 20.9512 44.4401 25.2383 43.2151 29.229C41.9903 33.2193 39.404 36.661 35.9034 38.9717C32.4033 41.2821 28.2036 42.3204 24.0194 41.9136C19.835 41.5068 15.9187 39.6792 12.9394 36.7366C12.1535 35.9604 12.1457 34.6941 12.9218 33.9082C13.698 33.1223 14.9643 33.1145 15.7502 33.8907C18.0717 36.1835 21.1303 37.6139 24.4065 37.9324C27.6827 38.2509 30.9673 37.4371 33.6999 35.6334C36.4319 33.83 38.4411 31.1504 39.3912 28.0552C40.3412 24.9604 40.1755 21.6364 38.9213 18.6478C37.667 15.6588 35.3995 13.1861 32.4995 11.6562C29.5991 10.126 26.2487 9.63557 23.0205 10.2708C19.7926 10.9061 16.8926 12.6262 14.8121 15.132C12.7319 17.6373 11.5986 20.7736 11.6 24.0061V27.5554C11.6 28.66 10.7046 29.5554 9.6 29.5554C8.49543 29.5554 7.6 28.66 7.6 27.5554V24.0073C7.59837 19.8361 9.06136 15.7964 11.7346 12.5768C14.4075 9.35753 18.1241 7.1577 22.2482 6.34611Z" fill="#675D59"/>
<path fill-rule="evenodd" clip-rule="evenodd" d="M24 14.8888C25.1046 14.8888 26 15.7843 26 16.8888V23.7777H33C34.1046 23.7777 35 24.6731 35 25.7777C35 26.8823 34.1046 27.7777 33 27.7777H24C22.8954 27.7777 22 26.8823 22 25.7777V16.8888C22 15.7843 22.8954 14.8888 24 14.8888ZM4.57703 22.5945C5.35321 21.8086 6.61952 21.8008 7.4054 22.5769L9.6 24.7444L11.7946 22.5769C12.5805 21.8008 13.8468 21.8086 14.623 22.5945C15.3992 23.3804 15.3913 24.6467 14.6054 25.4229L11.0054 28.9784C10.2264 29.7478 8.97359 29.7478 8.1946 28.9784L4.5946 25.4229C3.80871 24.6467 3.80085 23.3804 4.57703 22.5945Z" fill="#675D59"/>
</svg>
