<svg width="48" height="48" viewBox="0 0 48 48" fill="none" xmlns="http://www.w3.org/2000/svg">
<path fill-rule="evenodd" clip-rule="evenodd" d="M38 8C39.1046 8 40 8.89543 40 10V26.3333C40 27.4379 39.1046 28.3333 38 28.3333C36.8954 28.3333 36 27.4379 36 26.3333V10C36 8.89543 36.8954 8 38 8ZM15.5858 15.5858C16.3668 14.8047 17.6332 14.8047 18.4142 15.5858L32.4142 29.5858C33.1953 30.3668 33.1953 31.6332 32.4142 32.4142C31.6332 33.1953 30.3668 33.1953 29.5858 32.4142L15.5858 18.4142C14.8047 17.6332 14.8047 16.3668 15.5858 15.5858ZM8 38C8 36.8954 8.89543 36 10 36H26.3333C27.4379 36 28.3333 36.8954 28.3333 38C28.3333 39.1046 27.4379 40 26.3333 40H10C8.89543 40 8 39.1046 8 38Z" fill="#675D59"/>
</svg>
