<svg width="24" height="24" viewBox="0 0 24 24" fill="none" xmlns="http://www.w3.org/2000/svg">
<g id="User">
<path id="Vector (Stroke)" fill-rule="evenodd" clip-rule="evenodd" d="M8.46447 4.46447C9.40215 3.52678 10.6739 3 12 3C13.3261 3 14.5979 3.52678 15.5355 4.46447C16.4732 5.40215 17 6.67392 17 8C17 9.32608 16.4732 10.5979 15.5355 11.5355C15.4696 11.6015 15.402 11.6654 15.3328 11.7273C16.1893 12.1198 16.9778 12.6641 17.6569 13.3431C19.1571 14.8434 20 16.8783 20 19V20C20 20.5523 19.5523 21 19 21C18.4477 21 18 20.5523 18 20V19C18 17.4087 17.3679 15.8826 16.2426 14.7574C15.1174 13.6321 13.5913 13 12 13C10.4087 13 8.88258 13.6321 7.75736 14.7574C6.63214 15.8826 6 17.4087 6 19V20C6 20.5523 5.55228 21 5 21C4.44772 21 4 20.5523 4 20V19C4 16.8783 4.84285 14.8434 6.34315 13.3431C7.02217 12.6641 7.81069 12.1198 8.66721 11.7273C8.59804 11.6654 8.53043 11.6015 8.46447 11.5355C7.52678 10.5979 7 9.32608 7 8C7 6.67392 7.52678 5.40215 8.46447 4.46447ZM12 5C11.2044 5 10.4413 5.31607 9.87868 5.87868C9.31607 6.44129 9 7.20435 9 8C9 8.79565 9.31607 9.55871 9.87868 10.1213C10.4413 10.6839 11.2044 11 12 11C12.7956 11 13.5587 10.6839 14.1213 10.1213C14.6839 9.55871 15 8.79565 15 8C15 7.20435 14.6839 6.44129 14.1213 5.87868C13.5587 5.31607 12.7956 5 12 5Z" fill="#675D59"/>
</g>
</svg>
