<svg width="36" height="36" viewBox="0 0 36 36" fill="none" xmlns="http://www.w3.org/2000/svg">
<path fill-rule="evenodd" clip-rule="evenodd" d="M3 13.5C3 11.0147 5.01472 9 7.5 9H21C23.4853 9 25.5 11.0147 25.5 13.5V22.5C25.5 24.9853 23.4853 27 21 27H7.5C5.01472 27 3 24.9853 3 22.5V13.5ZM7.5 12C6.67157 12 6 12.6716 6 13.5V22.5C6 23.3284 6.67157 24 7.5 24H21C21.8284 24 22.5 23.3284 22.5 22.5V13.5C22.5 12.6716 21.8284 12 21 12H7.5Z" fill="#FBFCFF"/>
<path fill-rule="evenodd" clip-rule="evenodd" d="M32.2585 10.7059C32.7178 10.9751 33 11.4676 33 12V24C33 24.5324 32.7178 25.0249 32.2585 25.2941C31.7992 25.5633 31.2316 25.5689 30.7671 25.3088L23.2671 21.1088C22.7934 20.8435 22.5 20.3429 22.5 19.8V16.2C22.5 15.6571 22.7934 15.1565 23.2671 14.8912L30.7671 10.6912C31.2316 10.4311 31.7992 10.4367 32.2585 10.7059ZM25.5 17.0792V18.9208L30 21.4408V14.5592L25.5 17.0792Z" fill="#FBFCFF"/>
</svg>
