<svg width="30" height="30" viewBox="0 0 30 30" fill="none" xmlns="http://www.w3.org/2000/svg">
<g id="Group 664">
<g id="Vector">
<path fill-rule="evenodd" clip-rule="evenodd" d="M15 3C8.37258 3 3 8.37258 3 15C3 21.6274 8.37258 27 15 27C21.6274 27 27 21.6274 27 15C27 8.37258 21.6274 3 15 3ZM0 15C0 6.71573 6.71573 0 15 0C23.2843 0 30 6.71573 30 15C30 23.2843 23.2843 30 15 30C6.71573 30 0 23.2843 0 15Z" fill="#675D59"/>
<path fill-rule="evenodd" clip-rule="evenodd" d="M13.241 5.9284C12.4902 8.18104 12 11.3884 12 15C12 18.6116 12.4902 21.819 13.241 24.0716C13.6191 25.2058 14.0362 26.0154 14.4265 26.5106C14.6182 26.7539 14.7741 26.8837 14.8779 26.9474C14.9273 26.9778 14.9603 26.9903 14.9771 26.9954C14.9922 27 14.9987 27 15 27C15.0011 27 15.0074 27.0001 15.0229 26.9954C15.0397 26.9903 15.0727 26.9778 15.1221 26.9474C15.2259 26.8837 15.3818 26.7539 15.5735 26.5106C15.9638 26.0154 16.3809 25.2058 16.759 24.0716C17.5098 21.819 18 18.6116 18 15C18 11.3884 17.5098 8.18104 16.759 5.9284C16.3809 4.79424 15.9638 3.98462 15.5735 3.48936C15.3818 3.24612 15.2259 3.11628 15.1221 3.05261C15.0727 3.02224 15.0397 3.00968 15.0229 3.00458C15.0078 2.99998 15.0013 3 15 3C14.9987 3 14.9922 2.99998 14.9771 3.00458C14.9603 3.00968 14.9273 3.02224 14.8779 3.05261C14.7741 3.11628 14.6182 3.24612 14.4265 3.48936C14.0362 3.98462 13.6191 4.79424 13.241 5.9284ZM12.0703 1.63244C12.7434 0.77834 13.7221 0 15 0C16.2779 0 17.2566 0.77834 17.9297 1.63244C18.6162 2.50344 19.1687 3.67086 19.605 4.97972C20.4828 7.61312 21 11.1557 21 15C21 18.8443 20.4828 22.3869 19.605 25.0203C19.1687 26.3291 18.6162 27.4966 17.9297 28.3676C17.2566 29.2217 16.2779 30 15 30C13.7221 30 12.7434 29.2217 12.0703 28.3676C11.3838 27.4966 10.8313 26.3291 10.395 25.0203C9.51719 22.3869 9 18.8443 9 15C9 11.1557 9.51719 7.61312 10.395 4.97972C10.8313 3.67086 11.3838 2.50344 12.0703 1.63244Z" fill="#675D59"/>
<path fill-rule="evenodd" clip-rule="evenodd" d="M27 16.5H3V13.5H27V16.5Z" fill="#675D59"/>
</g>
</g>
</svg>
