<svg width="104" height="120" viewBox="0 0 104 120" fill="none" xmlns="http://www.w3.org/2000/svg">
<g filter="url(#filter0_ddd_8183_10174)">
<path fill-rule="evenodd" clip-rule="evenodd" d="M40.5858 40.5858C41.3668 39.8047 42.6332 39.8047 43.4142 40.5858L63.4142 60.5858C64.1953 61.3668 64.1953 62.6332 63.4142 63.4142C62.6332 64.1953 61.3668 64.1953 60.5858 63.4142L40.5858 43.4142C39.8047 42.6332 39.8047 41.3668 40.5858 40.5858Z" fill="#FBFCFF"/>
<path fill-rule="evenodd" clip-rule="evenodd" d="M40.5858 63.4142C39.8047 62.6332 39.8047 61.3668 40.5858 60.5858L60.5858 40.5858C61.3668 39.8047 62.6332 39.8047 63.4142 40.5858C64.1953 41.3668 64.1953 42.6332 63.4142 43.4142L43.4142 63.4142C42.6332 64.1953 41.3668 64.1953 40.5858 63.4142Z" fill="#FBFCFF"/>
</g>
<defs>
<filter id="filter0_ddd_8183_10174" x="-12" y="-12" width="128" height="144" filterUnits="userSpaceOnUse" color-interpolation-filters="sRGB">
<feFlood flood-opacity="0" result="BackgroundImageFix"/>
<feColorMatrix in="SourceAlpha" type="matrix" values="0 0 0 0 0 0 0 0 0 0 0 0 0 0 0 0 0 0 127 0" result="hardAlpha"/>
<feOffset dy="16"/>
<feGaussianBlur stdDeviation="20"/>
<feColorMatrix type="matrix" values="0 0 0 0 0.12549 0 0 0 0 0.12549 0 0 0 0 0.129412 0 0 0 0.2 0"/>
<feBlend mode="normal" in2="BackgroundImageFix" result="effect1_dropShadow_8183_10174"/>
<feColorMatrix in="SourceAlpha" type="matrix" values="0 0 0 0 0 0 0 0 0 0 0 0 0 0 0 0 0 0 127 0" result="hardAlpha"/>
<feOffset dy="8"/>
<feGaussianBlur stdDeviation="8"/>
<feColorMatrix type="matrix" values="0 0 0 0 0.127014 0 0 0 0 0.127444 0 0 0 0 0.129167 0 0 0 0.1 0"/>
<feBlend mode="normal" in2="effect1_dropShadow_8183_10174" result="effect2_dropShadow_8183_10174"/>
<feColorMatrix in="SourceAlpha" type="matrix" values="0 0 0 0 0 0 0 0 0 0 0 0 0 0 0 0 0 0 127 0" result="hardAlpha"/>
<feOffset/>
<feGaussianBlur stdDeviation="20"/>
<feColorMatrix type="matrix" values="0 0 0 0 1 0 0 0 0 0.643137 0 0 0 0 0.639216 0 0 0 0.1 0"/>
<feBlend mode="normal" in2="effect2_dropShadow_8183_10174" result="effect3_dropShadow_8183_10174"/>
<feBlend mode="normal" in="SourceGraphic" in2="effect3_dropShadow_8183_10174" result="shape"/>
</filter>
</defs>
</svg>
