<svg width="24" height="24" viewBox="0 0 24 24" fill="none" xmlns="http://www.w3.org/2000/svg">
<g id="hamburger">
<path id="Vector (Stroke)" fill-rule="evenodd" clip-rule="evenodd" d="M2 6C2 5.44772 2.44772 5 3 5H21C21.5523 5 22 5.44772 22 6C22 6.55228 21.5523 7 21 7H3C2.44772 7 2 6.55228 2 6ZM20 13L10 13C9.44772 13 9 12.5523 9 12C9 11.4477 9.44772 11 10 11L20 11C20.5523 11 21 11.4477 21 12C21 12.5523 20.5523 13 20 13ZM6 18C6 17.4477 6.44772 17 7 17L21 17C21.5523 17 22 17.4477 22 18C22 18.5523 21.5523 19 21 19L7 19C6.44772 19 6 18.5523 6 18Z" fill="#675D59"/>
</g>
</svg>
