<svg width="96" height="56" viewBox="0 0 96 56" fill="none" xmlns="http://www.w3.org/2000/svg">
<g filter="url(#filter0_ddd_1949_1714)">
<rect x="7" y="16" width="73" height="20" rx="10" fill="white" shape-rendering="crispEdges"/>
<path d="M23.7852 25.6104L23.4678 27.2705H24.8496V27.8906H23.3457L22.9307 30H22.2715L22.6865 27.8906H21.1973L20.7969 30H20.1475L20.5332 27.8906H19.2539V27.2705H20.6553L20.9824 25.6104H19.625V25H21.0947L21.5 22.8613H22.1689L21.7637 25H23.2627L23.668 22.8613H24.3125L23.9072 25H25.2012V25.6104H23.7852ZM21.3145 27.2705H22.8037L23.126 25.6104H21.6367L21.3145 27.2705ZM32.6328 26.4209C32.6328 26.971 32.5628 27.4723 32.4229 27.9248C32.2829 28.374 32.0745 28.7614 31.7979 29.0869C31.5244 29.4092 31.1842 29.6582 30.7773 29.834C30.3704 30.0098 29.8984 30.0977 29.3613 30.0977C28.8079 30.0977 28.3245 30.0098 27.9111 29.834C27.501 29.6582 27.1592 29.4076 26.8857 29.082C26.6156 28.7565 26.4121 28.3675 26.2754 27.915C26.1419 27.4626 26.0752 26.9613 26.0752 26.4111C26.0752 25.682 26.1956 25.0423 26.4365 24.4922C26.6774 23.9421 27.042 23.514 27.5303 23.208C28.0218 22.902 28.637 22.749 29.376 22.749C30.0824 22.749 30.6764 22.9004 31.1582 23.2031C31.6432 23.5059 32.0094 23.9323 32.2568 24.4824C32.5075 25.0293 32.6328 25.6755 32.6328 26.4209ZM26.9492 26.4209C26.9492 27.0264 27.0355 27.5505 27.208 27.9932C27.3805 28.4359 27.6442 28.7777 27.999 29.0186C28.3571 29.2594 28.8112 29.3799 29.3613 29.3799C29.9147 29.3799 30.3672 29.2594 30.7188 29.0186C31.0736 28.7777 31.3356 28.4359 31.5049 27.9932C31.6742 27.5505 31.7588 27.0264 31.7588 26.4209C31.7588 25.4997 31.5651 24.7803 31.1777 24.2627C30.7936 23.7419 30.193 23.4814 29.376 23.4814C28.8226 23.4814 28.3669 23.6003 28.0088 23.8379C27.6507 24.0755 27.3838 24.4141 27.208 24.8535C27.0355 25.2897 26.9492 25.8122 26.9492 26.4209ZM36.2461 30.0977C35.7643 30.0977 35.3395 29.9984 34.9717 29.7998C34.6038 29.6012 34.3174 29.2985 34.1123 28.8916C33.9072 28.4847 33.8047 27.972 33.8047 27.3535C33.8047 26.7057 33.9121 26.1768 34.127 25.7666C34.3451 25.3532 34.6445 25.0472 35.0254 24.8486C35.4062 24.6501 35.8392 24.5508 36.3242 24.5508C36.5911 24.5508 36.8483 24.5785 37.0957 24.6338C37.3464 24.6859 37.5514 24.7526 37.7109 24.834L37.4668 25.5127C37.304 25.4476 37.1152 25.389 36.9004 25.3369C36.6888 25.2848 36.4902 25.2588 36.3047 25.2588C35.9336 25.2588 35.6243 25.3385 35.377 25.498C35.1328 25.6576 34.9489 25.8919 34.8252 26.2012C34.7048 26.5104 34.6445 26.8913 34.6445 27.3438C34.6445 27.7767 34.7031 28.1462 34.8203 28.4521C34.9408 28.7581 35.1182 28.9925 35.3525 29.1553C35.5902 29.3148 35.8864 29.3945 36.2412 29.3945C36.5244 29.3945 36.7799 29.3652 37.0078 29.3066C37.2357 29.2448 37.4424 29.1732 37.6279 29.0918V29.8145C37.4489 29.9056 37.2487 29.9756 37.0273 30.0244C36.8092 30.0732 36.5488 30.0977 36.2461 30.0977ZM41.041 30.0977C40.5592 30.0977 40.1344 29.9984 39.7666 29.7998C39.3988 29.6012 39.1123 29.2985 38.9072 28.8916C38.7021 28.4847 38.5996 27.972 38.5996 27.3535C38.5996 26.7057 38.707 26.1768 38.9219 25.7666C39.14 25.3532 39.4395 25.0472 39.8203 24.8486C40.2012 24.6501 40.6341 24.5508 41.1191 24.5508C41.3861 24.5508 41.6432 24.5785 41.8906 24.6338C42.1413 24.6859 42.3464 24.7526 42.5059 24.834L42.2617 25.5127C42.099 25.4476 41.9102 25.389 41.6953 25.3369C41.4837 25.2848 41.2852 25.2588 41.0996 25.2588C40.7285 25.2588 40.4193 25.3385 40.1719 25.498C39.9277 25.6576 39.7438 25.8919 39.6201 26.2012C39.4997 26.5104 39.4395 26.8913 39.4395 27.3438C39.4395 27.7767 39.498 28.1462 39.6152 28.4521C39.7357 28.7581 39.9131 28.9925 40.1475 29.1553C40.3851 29.3148 40.6813 29.3945 41.0361 29.3945C41.3193 29.3945 41.5749 29.3652 41.8027 29.3066C42.0306 29.2448 42.2373 29.1732 42.4229 29.0918V29.8145C42.2438 29.9056 42.0436 29.9756 41.8223 30.0244C41.6042 30.0732 41.3438 30.0977 41.041 30.0977ZM45.6943 24.5605C46.3324 24.5605 46.806 24.7038 47.1152 24.9902C47.4245 25.2767 47.5791 25.734 47.5791 26.3623V30H46.9883L46.832 29.209H46.793C46.6432 29.4043 46.487 29.5687 46.3242 29.7021C46.1615 29.8324 45.9727 29.9316 45.7578 30C45.5462 30.0651 45.2858 30.0977 44.9766 30.0977C44.651 30.0977 44.3613 30.0407 44.1074 29.9268C43.8568 29.8128 43.6582 29.6403 43.5117 29.4092C43.3685 29.1781 43.2969 28.8851 43.2969 28.5303C43.2969 27.9964 43.5085 27.5863 43.9316 27.2998C44.3548 27.0133 44.9993 26.8571 45.8652 26.8311L46.7881 26.792V26.4648C46.7881 26.0026 46.6888 25.6787 46.4902 25.4932C46.2917 25.3076 46.0117 25.2148 45.6504 25.2148C45.3704 25.2148 45.1035 25.2555 44.8496 25.3369C44.5957 25.4183 44.3548 25.5143 44.127 25.625L43.8779 25.0098C44.1188 24.8861 44.3955 24.7803 44.708 24.6924C45.0205 24.6045 45.3493 24.5605 45.6943 24.5605ZM46.7783 27.3633L45.9629 27.3975C45.2956 27.4235 44.8252 27.5326 44.5518 27.7246C44.2783 27.9167 44.1416 28.1885 44.1416 28.54C44.1416 28.846 44.2344 29.0723 44.4199 29.2188C44.6055 29.3652 44.8512 29.4385 45.1572 29.4385C45.6325 29.4385 46.0215 29.3066 46.3242 29.043C46.627 28.7793 46.7783 28.3838 46.7783 27.8564V27.3633ZM51.3096 24.5508C51.7653 24.5508 52.1559 24.6517 52.4814 24.8535C52.807 25.0553 53.056 25.3385 53.2285 25.7031C53.401 26.0645 53.4873 26.4876 53.4873 26.9727V27.4756H49.791C49.8008 28.1038 49.957 28.5824 50.2598 28.9111C50.5625 29.2399 50.9889 29.4043 51.5391 29.4043C51.8776 29.4043 52.1771 29.3734 52.4375 29.3115C52.6979 29.2497 52.9681 29.1585 53.248 29.0381V29.751C52.9779 29.8714 52.7093 29.9593 52.4424 30.0146C52.1787 30.07 51.8662 30.0977 51.5049 30.0977C50.9906 30.0977 50.5413 29.9935 50.1572 29.7852C49.7764 29.5736 49.4801 29.2643 49.2686 28.8574C49.057 28.4505 48.9512 27.9525 48.9512 27.3633C48.9512 26.7871 49.0472 26.2891 49.2393 25.8691C49.4346 25.446 49.708 25.1204 50.0596 24.8926C50.4144 24.6647 50.8311 24.5508 51.3096 24.5508ZM51.2998 25.2148C50.8669 25.2148 50.5218 25.3564 50.2646 25.6396C50.0075 25.9229 49.8545 26.3184 49.8057 26.8262H52.6377C52.6344 26.5072 52.584 26.2272 52.4863 25.9863C52.3919 25.7422 52.2471 25.5534 52.0518 25.4199C51.8564 25.2832 51.6058 25.2148 51.2998 25.2148ZM57.0078 30.0977C56.526 30.0977 56.1012 29.9984 55.7334 29.7998C55.3656 29.6012 55.0791 29.2985 54.874 28.8916C54.6689 28.4847 54.5664 27.972 54.5664 27.3535C54.5664 26.7057 54.6738 26.1768 54.8887 25.7666C55.1068 25.3532 55.4062 25.0472 55.7871 24.8486C56.168 24.6501 56.6009 24.5508 57.0859 24.5508C57.3529 24.5508 57.61 24.5785 57.8574 24.6338C58.1081 24.6859 58.3132 24.7526 58.4727 24.834L58.2285 25.5127C58.0658 25.4476 57.877 25.389 57.6621 25.3369C57.4505 25.2848 57.252 25.2588 57.0664 25.2588C56.6953 25.2588 56.3861 25.3385 56.1387 25.498C55.8945 25.6576 55.7106 25.8919 55.5869 26.2012C55.4665 26.5104 55.4062 26.8913 55.4062 27.3438C55.4062 27.7767 55.4648 28.1462 55.582 28.4521C55.7025 28.7581 55.8799 28.9925 56.1143 29.1553C56.3519 29.3148 56.6481 29.3945 57.0029 29.3945C57.2861 29.3945 57.5417 29.3652 57.7695 29.3066C57.9974 29.2448 58.2041 29.1732 58.3896 29.0918V29.8145C58.2106 29.9056 58.0104 29.9756 57.7891 30.0244C57.571 30.0732 57.3105 30.0977 57.0078 30.0977ZM61.6611 24.5605C62.2992 24.5605 62.7728 24.7038 63.082 24.9902C63.3913 25.2767 63.5459 25.734 63.5459 26.3623V30H62.9551L62.7988 29.209H62.7598C62.61 29.4043 62.4538 29.5687 62.291 29.7021C62.1283 29.8324 61.9395 29.9316 61.7246 30C61.513 30.0651 61.2526 30.0977 60.9434 30.0977C60.6178 30.0977 60.3281 30.0407 60.0742 29.9268C59.8236 29.8128 59.625 29.6403 59.4785 29.4092C59.3353 29.1781 59.2637 28.8851 59.2637 28.5303C59.2637 27.9964 59.4753 27.5863 59.8984 27.2998C60.3216 27.0133 60.9661 26.8571 61.832 26.8311L62.7549 26.792V26.4648C62.7549 26.0026 62.6556 25.6787 62.457 25.4932C62.2585 25.3076 61.9785 25.2148 61.6172 25.2148C61.3372 25.2148 61.0703 25.2555 60.8164 25.3369C60.5625 25.4183 60.3216 25.5143 60.0938 25.625L59.8447 25.0098C60.0856 24.8861 60.3623 24.7803 60.6748 24.6924C60.9873 24.6045 61.3161 24.5605 61.6611 24.5605ZM62.7451 27.3633L61.9297 27.3975C61.2624 27.4235 60.792 27.5326 60.5186 27.7246C60.2451 27.9167 60.1084 28.1885 60.1084 28.54C60.1084 28.846 60.2012 29.0723 60.3867 29.2188C60.5723 29.3652 60.818 29.4385 61.124 29.4385C61.5993 29.4385 61.9883 29.3066 62.291 29.043C62.5938 28.7793 62.7451 28.3838 62.7451 27.8564V27.3633ZM66.9443 29.4336C67.0778 29.4336 67.2145 29.4222 67.3545 29.3994C67.4945 29.3766 67.6084 29.349 67.6963 29.3164V29.9463C67.6019 29.9886 67.4701 30.0244 67.3008 30.0537C67.1348 30.083 66.972 30.0977 66.8125 30.0977C66.5293 30.0977 66.2721 30.0488 66.041 29.9512C65.8099 29.8503 65.6243 29.681 65.4844 29.4434C65.3477 29.2057 65.2793 28.877 65.2793 28.457V25.2832H64.5176V24.8877L65.2842 24.5703L65.6064 23.4082H66.0947V24.6484H67.6621V25.2832H66.0947V28.4326C66.0947 28.7679 66.1712 29.0186 66.3242 29.1846C66.4805 29.3506 66.6872 29.4336 66.9443 29.4336Z" fill="black"/>
</g>
<defs>
<filter id="filter0_ddd_1949_1714" x="-9" y="0" width="105" height="56" filterUnits="userSpaceOnUse" color-interpolation-filters="sRGB">
<feFlood flood-opacity="0" result="BackgroundImageFix"/>
<feColorMatrix in="SourceAlpha" type="matrix" values="0 0 0 0 0 0 0 0 0 0 0 0 0 0 0 0 0 0 127 0" result="hardAlpha"/>
<feOffset dy="4"/>
<feGaussianBlur stdDeviation="8"/>
<feComposite in2="hardAlpha" operator="out"/>
<feColorMatrix type="matrix" values="0 0 0 0 0.12549 0 0 0 0 0.12549 0 0 0 0 0.129412 0 0 0 0.08 0"/>
<feBlend mode="normal" in2="BackgroundImageFix" result="effect1_dropShadow_1949_1714"/>
<feColorMatrix in="SourceAlpha" type="matrix" values="0 0 0 0 0 0 0 0 0 0 0 0 0 0 0 0 0 0 127 0" result="hardAlpha"/>
<feOffset dy="2"/>
<feGaussianBlur stdDeviation="2"/>
<feComposite in2="hardAlpha" operator="out"/>
<feColorMatrix type="matrix" values="0 0 0 0 0.127014 0 0 0 0 0.127444 0 0 0 0 0.129167 0 0 0 0.04 0"/>
<feBlend mode="normal" in2="effect1_dropShadow_1949_1714" result="effect2_dropShadow_1949_1714"/>
<feColorMatrix in="SourceAlpha" type="matrix" values="0 0 0 0 0 0 0 0 0 0 0 0 0 0 0 0 0 0 127 0" result="hardAlpha"/>
<feOffset/>
<feGaussianBlur stdDeviation="8"/>
<feComposite in2="hardAlpha" operator="out"/>
<feColorMatrix type="matrix" values="0 0 0 0 1 0 0 0 0 0.643137 0 0 0 0 0.639216 0 0 0 0.1 0"/>
<feBlend mode="normal" in2="effect2_dropShadow_1949_1714" result="effect3_dropShadow_1949_1714"/>
<feBlend mode="normal" in="SourceGraphic" in2="effect3_dropShadow_1949_1714" result="shape"/>
</filter>
</defs>
</svg>
