<svg width="93" height="56" viewBox="0 0 93 56" fill="none" xmlns="http://www.w3.org/2000/svg">
<g filter="url(#filter0_ddd_1949_1718)">
<rect x="16" y="16" width="61" height="20" rx="10" fill="white" shape-rendering="crispEdges"/>
<path d="M32.7852 25.6104L32.4678 27.2705H33.8496V27.8906H32.3457L31.9307 30H31.2715L31.6865 27.8906H30.1973L29.7969 30H29.1475L29.5332 27.8906H28.2539V27.2705H29.6553L29.9824 25.6104H28.625V25H30.0947L30.5 22.8613H31.1689L30.7637 25H32.2627L32.668 22.8613H33.3125L32.9072 25H34.2012V25.6104H32.7852ZM30.3145 27.2705H31.8037L32.126 25.6104H30.6367L30.3145 27.2705ZM35.4414 30V22.8613H36.2715V29.2578H39.4404V30H35.4414ZM45.1582 27.3145C45.1582 27.7539 45.1012 28.1462 44.9873 28.4912C44.8734 28.8363 44.709 29.1276 44.4941 29.3652C44.2793 29.6029 44.0189 29.7852 43.7129 29.9121C43.4102 30.0358 43.0667 30.0977 42.6826 30.0977C42.3245 30.0977 41.9958 30.0358 41.6963 29.9121C41.4001 29.7852 41.1429 29.6029 40.9248 29.3652C40.71 29.1276 40.5423 28.8363 40.4219 28.4912C40.3047 28.1462 40.2461 27.7539 40.2461 27.3145C40.2461 26.7285 40.3454 26.2305 40.5439 25.8203C40.7425 25.4069 41.0257 25.0928 41.3936 24.8779C41.7646 24.6598 42.2057 24.5508 42.7168 24.5508C43.2051 24.5508 43.6315 24.6598 43.9961 24.8779C44.3639 25.096 44.6488 25.4118 44.8506 25.8252C45.0557 26.2354 45.1582 26.7318 45.1582 27.3145ZM41.0859 27.3145C41.0859 27.7441 41.1429 28.1169 41.2568 28.4326C41.3708 28.7484 41.5465 28.9925 41.7842 29.165C42.0218 29.3376 42.3278 29.4238 42.7021 29.4238C43.0732 29.4238 43.3776 29.3376 43.6152 29.165C43.8561 28.9925 44.0335 28.7484 44.1475 28.4326C44.2614 28.1169 44.3184 27.7441 44.3184 27.3145C44.3184 26.888 44.2614 26.5202 44.1475 26.2109C44.0335 25.8984 43.8577 25.6576 43.6201 25.4883C43.3825 25.319 43.0749 25.2344 42.6973 25.2344C42.1406 25.2344 41.7321 25.4183 41.4717 25.7861C41.2145 26.154 41.0859 26.6634 41.0859 27.3145ZM48.9912 24.5508C49.0986 24.5508 49.2109 24.5573 49.3281 24.5703C49.4453 24.5801 49.5495 24.5947 49.6406 24.6143L49.5381 25.3662C49.4502 25.3434 49.3525 25.3255 49.2451 25.3125C49.1377 25.2995 49.0368 25.293 48.9424 25.293C48.7275 25.293 48.5241 25.3369 48.332 25.4248C48.1432 25.5094 47.9772 25.6331 47.834 25.7959C47.6908 25.9554 47.5785 26.1491 47.4971 26.377C47.4157 26.6016 47.375 26.8522 47.375 27.1289V30H46.5596V24.6484H47.2334L47.3213 25.6348H47.3555C47.4661 25.4362 47.5996 25.2555 47.7559 25.0928C47.9121 24.9268 48.0928 24.7949 48.2979 24.6973C48.5062 24.5996 48.7373 24.5508 48.9912 24.5508ZM52.7119 24.5508C53.1676 24.5508 53.5583 24.6517 53.8838 24.8535C54.2093 25.0553 54.4583 25.3385 54.6309 25.7031C54.8034 26.0645 54.8896 26.4876 54.8896 26.9727V27.4756H51.1934C51.2031 28.1038 51.3594 28.5824 51.6621 28.9111C51.9648 29.2399 52.3913 29.4043 52.9414 29.4043C53.2799 29.4043 53.5794 29.3734 53.8398 29.3115C54.1003 29.2497 54.3704 29.1585 54.6504 29.0381V29.751C54.3802 29.8714 54.1117 29.9593 53.8447 30.0146C53.5811 30.07 53.2686 30.0977 52.9072 30.0977C52.3929 30.0977 51.9437 29.9935 51.5596 29.7852C51.1787 29.5736 50.8825 29.2643 50.6709 28.8574C50.4593 28.4505 50.3535 27.9525 50.3535 27.3633C50.3535 26.7871 50.4495 26.2891 50.6416 25.8691C50.8369 25.446 51.1104 25.1204 51.4619 24.8926C51.8167 24.6647 52.2334 24.5508 52.7119 24.5508ZM52.7021 25.2148C52.2692 25.2148 51.9242 25.3564 51.667 25.6396C51.4098 25.9229 51.2568 26.3184 51.208 26.8262H54.04C54.0368 26.5072 53.9863 26.2272 53.8887 25.9863C53.7943 25.7422 53.6494 25.5534 53.4541 25.4199C53.2588 25.2832 53.0081 25.2148 52.7021 25.2148ZM62.0771 24.5508C62.6663 24.5508 63.1107 24.7054 63.4102 25.0146C63.7096 25.3206 63.8594 25.8138 63.8594 26.4941V30H63.0586V26.5332C63.0586 26.1003 62.9642 25.7764 62.7754 25.5615C62.5898 25.3434 62.3132 25.2344 61.9453 25.2344C61.4277 25.2344 61.0518 25.3841 60.8174 25.6836C60.583 25.9831 60.4658 26.4242 60.4658 27.0068V30H59.6602V26.5332C59.6602 26.2435 59.6178 26.0026 59.5332 25.8105C59.4518 25.6185 59.3281 25.4753 59.1621 25.3809C58.9993 25.2832 58.7926 25.2344 58.542 25.2344C58.1872 25.2344 57.9023 25.3076 57.6875 25.4541C57.4727 25.6006 57.3164 25.8187 57.2188 26.1084C57.1243 26.3949 57.0771 26.748 57.0771 27.168V30H56.2666V24.6484H56.9209L57.043 25.4053H57.0869C57.1943 25.2197 57.3294 25.0635 57.4922 24.9365C57.6549 24.8096 57.8372 24.7135 58.0391 24.6484C58.2409 24.5833 58.4557 24.5508 58.6836 24.5508C59.0905 24.5508 59.4307 24.6273 59.7041 24.7803C59.9808 24.93 60.181 25.1595 60.3047 25.4688H60.3486C60.5244 25.1595 60.7653 24.93 61.0713 24.7803C61.3773 24.6273 61.7126 24.5508 62.0771 24.5508Z" fill="black"/>
</g>
<defs>
<filter id="filter0_ddd_1949_1718" x="0" y="0" width="93" height="56" filterUnits="userSpaceOnUse" color-interpolation-filters="sRGB">
<feFlood flood-opacity="0" result="BackgroundImageFix"/>
<feColorMatrix in="SourceAlpha" type="matrix" values="0 0 0 0 0 0 0 0 0 0 0 0 0 0 0 0 0 0 127 0" result="hardAlpha"/>
<feOffset dy="4"/>
<feGaussianBlur stdDeviation="8"/>
<feComposite in2="hardAlpha" operator="out"/>
<feColorMatrix type="matrix" values="0 0 0 0 0.12549 0 0 0 0 0.12549 0 0 0 0 0.129412 0 0 0 0.08 0"/>
<feBlend mode="normal" in2="BackgroundImageFix" result="effect1_dropShadow_1949_1718"/>
<feColorMatrix in="SourceAlpha" type="matrix" values="0 0 0 0 0 0 0 0 0 0 0 0 0 0 0 0 0 0 127 0" result="hardAlpha"/>
<feOffset dy="2"/>
<feGaussianBlur stdDeviation="2"/>
<feComposite in2="hardAlpha" operator="out"/>
<feColorMatrix type="matrix" values="0 0 0 0 0.127014 0 0 0 0 0.127444 0 0 0 0 0.129167 0 0 0 0.04 0"/>
<feBlend mode="normal" in2="effect1_dropShadow_1949_1718" result="effect2_dropShadow_1949_1718"/>
<feColorMatrix in="SourceAlpha" type="matrix" values="0 0 0 0 0 0 0 0 0 0 0 0 0 0 0 0 0 0 127 0" result="hardAlpha"/>
<feOffset/>
<feGaussianBlur stdDeviation="8"/>
<feComposite in2="hardAlpha" operator="out"/>
<feColorMatrix type="matrix" values="0 0 0 0 1 0 0 0 0 0.643137 0 0 0 0 0.639216 0 0 0 0.1 0"/>
<feBlend mode="normal" in2="effect2_dropShadow_1949_1718" result="effect3_dropShadow_1949_1718"/>
<feBlend mode="normal" in="SourceGraphic" in2="effect3_dropShadow_1949_1718" result="shape"/>
</filter>
</defs>
</svg>
