<svg width="110" height="56" viewBox="0 0 110 56" fill="none" xmlns="http://www.w3.org/2000/svg">
<g filter="url(#filter0_ddd_1949_1811)">
<rect x="16" y="16" width="78" height="20" rx="10" fill="white" shape-rendering="crispEdges"/>
<path d="M32.7852 25.6104L32.4678 27.2705H33.8496V27.8906H32.3457L31.9307 30H31.2715L31.6865 27.8906H30.1973L29.7969 30H29.1475L29.5332 27.8906H28.2539V27.2705H29.6553L29.9824 25.6104H28.625V25H30.0947L30.5 22.8613H31.1689L30.7637 25H32.2627L32.668 22.8613H33.3125L32.9072 25H34.2012V25.6104H32.7852ZM30.3145 27.2705H31.8037L32.126 25.6104H30.6367L30.3145 27.2705ZM39.9189 30L39.04 27.7344H36.1787L35.3047 30H34.4648L37.2578 22.832H38.0049L40.7783 30H39.9189ZM38.791 26.9971L37.9561 24.7461C37.9365 24.6875 37.904 24.5915 37.8584 24.458C37.8161 24.3245 37.7721 24.1862 37.7266 24.043C37.681 23.8997 37.6436 23.7842 37.6143 23.6963C37.5817 23.8298 37.5459 23.9632 37.5068 24.0967C37.471 24.2269 37.4352 24.349 37.3994 24.4629C37.3636 24.5736 37.3327 24.668 37.3066 24.7461L36.457 26.9971H38.791ZM43.5518 30.0977C42.8747 30.0977 42.3376 29.8665 41.9404 29.4043C41.5465 28.9421 41.3496 28.2552 41.3496 27.3438C41.3496 26.4225 41.5514 25.7275 41.9551 25.2588C42.3587 24.7868 42.8958 24.5508 43.5664 24.5508C43.8496 24.5508 44.097 24.5882 44.3086 24.6631C44.5202 24.738 44.7025 24.8389 44.8555 24.9658C45.0085 25.0895 45.137 25.2311 45.2412 25.3906H45.2998C45.2868 25.2897 45.2738 25.1514 45.2607 24.9756C45.2477 24.7998 45.2412 24.6566 45.2412 24.5459V22.4023H46.0518V30H45.3975L45.2754 29.2383H45.2412C45.1403 29.3978 45.0117 29.5426 44.8555 29.6729C44.7025 29.8031 44.5186 29.9072 44.3037 29.9854C44.0921 30.0602 43.8415 30.0977 43.5518 30.0977ZM43.6787 29.4238C44.2516 29.4238 44.6569 29.2611 44.8945 28.9355C45.1322 28.61 45.251 28.1266 45.251 27.4854V27.3389C45.251 26.6585 45.137 26.1361 44.9092 25.7715C44.6846 25.4069 44.2744 25.2246 43.6787 25.2246C43.1807 25.2246 42.8079 25.4167 42.5605 25.8008C42.3132 26.1816 42.1895 26.7025 42.1895 27.3633C42.1895 28.0208 42.3115 28.5286 42.5557 28.8867C42.8031 29.2448 43.1774 29.4238 43.6787 29.4238ZM48.5811 24.6484V30H47.7705V24.6484H48.5811ZM48.1855 22.6465C48.319 22.6465 48.4329 22.6904 48.5273 22.7783C48.625 22.863 48.6738 22.9964 48.6738 23.1787C48.6738 23.3577 48.625 23.4912 48.5273 23.5791C48.4329 23.667 48.319 23.7109 48.1855 23.7109C48.0456 23.7109 47.9284 23.667 47.834 23.5791C47.7428 23.4912 47.6973 23.3577 47.6973 23.1787C47.6973 22.9964 47.7428 22.863 47.834 22.7783C47.9284 22.6904 48.0456 22.6465 48.1855 22.6465ZM52.8145 24.5508C53.4818 24.5508 54.014 24.7803 54.4111 25.2393C54.8083 25.6982 55.0068 26.3883 55.0068 27.3096C55.0068 27.9183 54.9157 28.4294 54.7334 28.8428C54.5511 29.2562 54.2939 29.5687 53.9619 29.7803C53.6331 29.9919 53.2441 30.0977 52.7949 30.0977C52.5117 30.0977 52.2627 30.0602 52.0479 29.9854C51.833 29.9105 51.6491 29.8096 51.4961 29.6826C51.3431 29.5557 51.2161 29.4173 51.1152 29.2676H51.0566C51.0664 29.3945 51.0778 29.5475 51.0908 29.7266C51.1071 29.9056 51.1152 30.0618 51.1152 30.1953V32.3926H50.2998V24.6484H50.9688L51.0762 25.4395H51.1152C51.2194 25.2767 51.3464 25.1286 51.4961 24.9951C51.6458 24.8584 51.8281 24.751 52.043 24.6729C52.2611 24.5915 52.5182 24.5508 52.8145 24.5508ZM52.6729 25.2344C52.3018 25.2344 52.0023 25.306 51.7744 25.4492C51.5498 25.5924 51.3854 25.8073 51.2812 26.0938C51.1771 26.377 51.1217 26.7334 51.1152 27.1631V27.3193C51.1152 27.7718 51.1641 28.1543 51.2617 28.4668C51.3626 28.7793 51.527 29.0169 51.7549 29.1797C51.986 29.3424 52.2952 29.4238 52.6826 29.4238C53.0146 29.4238 53.2913 29.3343 53.5127 29.1553C53.734 28.9762 53.8984 28.7272 54.0059 28.4082C54.1165 28.0859 54.1719 27.7165 54.1719 27.2998C54.1719 26.6683 54.0482 26.167 53.8008 25.7959C53.5566 25.4215 53.1807 25.2344 52.6729 25.2344ZM57.2334 24.6484V30H56.4229V24.6484H57.2334ZM56.8379 22.6465C56.9714 22.6465 57.0853 22.6904 57.1797 22.7783C57.2773 22.863 57.3262 22.9964 57.3262 23.1787C57.3262 23.3577 57.2773 23.4912 57.1797 23.5791C57.0853 23.667 56.9714 23.7109 56.8379 23.7109C56.6979 23.7109 56.5807 23.667 56.4863 23.5791C56.3952 23.4912 56.3496 23.3577 56.3496 23.1787C56.3496 22.9964 56.3952 22.863 56.4863 22.7783C56.5807 22.6904 56.6979 22.6465 56.8379 22.6465ZM62.4141 28.5352C62.4141 28.877 62.3278 29.165 62.1553 29.3994C61.986 29.6305 61.7419 29.8047 61.4229 29.9219C61.1071 30.0391 60.7295 30.0977 60.29 30.0977C59.9157 30.0977 59.5918 30.0684 59.3184 30.0098C59.0449 29.9512 58.8057 29.8682 58.6006 29.7607V29.0137C58.8187 29.1211 59.0791 29.2188 59.3818 29.3066C59.6846 29.3945 59.9938 29.4385 60.3096 29.4385C60.7718 29.4385 61.1071 29.3636 61.3154 29.2139C61.5238 29.0641 61.6279 28.8607 61.6279 28.6035C61.6279 28.457 61.5856 28.3285 61.501 28.2178C61.4196 28.1038 61.2812 27.9948 61.0859 27.8906C60.8906 27.7832 60.6204 27.666 60.2754 27.5391C59.9336 27.4089 59.6374 27.2803 59.3867 27.1533C59.1393 27.0231 58.9473 26.8652 58.8105 26.6797C58.6771 26.4941 58.6104 26.2533 58.6104 25.957C58.6104 25.5046 58.7926 25.1579 59.1572 24.917C59.5251 24.6729 60.0068 24.5508 60.6025 24.5508C60.9248 24.5508 61.2259 24.5833 61.5059 24.6484C61.7891 24.7103 62.0527 24.7949 62.2969 24.9023L62.0234 25.5518C61.8021 25.4574 61.5661 25.3776 61.3154 25.3125C61.0648 25.2474 60.8092 25.2148 60.5488 25.2148C60.1745 25.2148 59.8864 25.2767 59.6846 25.4004C59.486 25.5241 59.3867 25.6934 59.3867 25.9082C59.3867 26.0742 59.4323 26.2109 59.5234 26.3184C59.6178 26.4258 59.7676 26.5267 59.9727 26.6211C60.1777 26.7155 60.4479 26.8262 60.7832 26.9531C61.1185 27.0768 61.4082 27.2054 61.6523 27.3389C61.8965 27.4691 62.0837 27.6286 62.2139 27.8174C62.3473 28.0029 62.4141 28.2422 62.4141 28.5352ZM65.8613 30.0977C65.3796 30.0977 64.9548 29.9984 64.5869 29.7998C64.2191 29.6012 63.9326 29.2985 63.7275 28.8916C63.5225 28.4847 63.4199 27.972 63.4199 27.3535C63.4199 26.7057 63.5273 26.1768 63.7422 25.7666C63.9603 25.3532 64.2598 25.0472 64.6406 24.8486C65.0215 24.6501 65.4544 24.5508 65.9395 24.5508C66.2064 24.5508 66.4635 24.5785 66.7109 24.6338C66.9616 24.6859 67.1667 24.7526 67.3262 24.834L67.082 25.5127C66.9193 25.4476 66.7305 25.389 66.5156 25.3369C66.304 25.2848 66.1055 25.2588 65.9199 25.2588C65.5488 25.2588 65.2396 25.3385 64.9922 25.498C64.748 25.6576 64.5641 25.8919 64.4404 26.2012C64.32 26.5104 64.2598 26.8913 64.2598 27.3438C64.2598 27.7767 64.3184 28.1462 64.4355 28.4521C64.556 28.7581 64.7334 28.9925 64.9678 29.1553C65.2054 29.3148 65.5016 29.3945 65.8564 29.3945C66.1396 29.3945 66.3952 29.3652 66.623 29.3066C66.8509 29.2448 67.0576 29.1732 67.2432 29.0918V29.8145C67.0641 29.9056 66.8639 29.9756 66.6426 30.0244C66.4245 30.0732 66.1641 30.0977 65.8613 30.0977ZM69.3232 24.6484V30H68.5127V24.6484H69.3232ZM68.9277 22.6465C69.0612 22.6465 69.1751 22.6904 69.2695 22.7783C69.3672 22.863 69.416 22.9964 69.416 23.1787C69.416 23.3577 69.3672 23.4912 69.2695 23.5791C69.1751 23.667 69.0612 23.7109 68.9277 23.7109C68.7878 23.7109 68.6706 23.667 68.5762 23.5791C68.485 23.4912 68.4395 23.3577 68.4395 23.1787C68.4395 22.9964 68.485 22.863 68.5762 22.7783C68.6706 22.6904 68.7878 22.6465 68.9277 22.6465ZM73.5762 24.5508C74.2109 24.5508 74.6911 24.707 75.0166 25.0195C75.3421 25.3288 75.5049 25.8268 75.5049 26.5137V30H74.7041V26.5674C74.7041 26.1214 74.6016 25.7878 74.3965 25.5664C74.1947 25.3451 73.8838 25.2344 73.4639 25.2344C72.8714 25.2344 72.4548 25.402 72.2139 25.7373C71.973 26.0726 71.8525 26.5592 71.8525 27.1973V30H71.042V24.6484H71.6963L71.8184 25.4199H71.8623C71.9762 25.2311 72.1211 25.0732 72.2969 24.9463C72.4727 24.8161 72.6696 24.7184 72.8877 24.6533C73.1058 24.585 73.3353 24.5508 73.5762 24.5508ZM78.6689 32.4023C77.9658 32.4023 77.4238 32.2705 77.043 32.0068C76.6621 31.7464 76.4717 31.3802 76.4717 30.9082C76.4717 30.5729 76.5775 30.2865 76.7891 30.0488C77.0039 29.8112 77.3001 29.6533 77.6777 29.5752C77.5378 29.5101 77.4173 29.4124 77.3164 29.2822C77.2188 29.152 77.1699 29.0023 77.1699 28.833C77.1699 28.6377 77.2236 28.4668 77.3311 28.3203C77.4417 28.1706 77.6094 28.0273 77.834 27.8906C77.554 27.7767 77.3262 27.5846 77.1504 27.3145C76.9779 27.041 76.8916 26.7236 76.8916 26.3623C76.8916 25.9782 76.9714 25.651 77.1309 25.3809C77.2904 25.1074 77.5215 24.8991 77.8242 24.7559C78.127 24.6126 78.4932 24.541 78.9229 24.541C79.0173 24.541 79.1117 24.5459 79.2061 24.5557C79.3037 24.5622 79.3965 24.5736 79.4844 24.5898C79.5723 24.6029 79.6488 24.6191 79.7139 24.6387H81.5498V25.1611L80.5635 25.2832C80.6611 25.4102 80.7425 25.5632 80.8076 25.7422C80.8727 25.9212 80.9053 26.1198 80.9053 26.3379C80.9053 26.8717 80.7246 27.2965 80.3633 27.6123C80.002 27.9248 79.5055 28.0811 78.874 28.0811C78.7243 28.0811 78.5713 28.068 78.415 28.042C78.2555 28.1299 78.1335 28.2275 78.0488 28.335C77.9674 28.4424 77.9268 28.5661 77.9268 28.7061C77.9268 28.8102 77.9577 28.8932 78.0195 28.9551C78.0846 29.0169 78.1774 29.0625 78.2979 29.0918C78.4183 29.1178 78.5632 29.1309 78.7324 29.1309H79.6748C80.2575 29.1309 80.7035 29.2529 81.0127 29.4971C81.3252 29.7412 81.4814 30.0977 81.4814 30.5664C81.4814 31.1589 81.2406 31.613 80.7588 31.9287C80.277 32.2445 79.5804 32.4023 78.6689 32.4023ZM78.6934 31.7676C79.1361 31.7676 79.5023 31.722 79.792 31.6309C80.085 31.543 80.3031 31.4144 80.4463 31.2451C80.5928 31.0791 80.666 30.8805 80.666 30.6494C80.666 30.4346 80.6172 30.2718 80.5195 30.1611C80.4219 30.0537 80.2786 29.9821 80.0898 29.9463C79.901 29.9072 79.6699 29.8877 79.3965 29.8877H78.4688C78.2279 29.8877 78.0179 29.9251 77.8389 30C77.6598 30.0749 77.5215 30.1855 77.4238 30.332C77.3294 30.4785 77.2822 30.6608 77.2822 30.8789C77.2822 31.1686 77.4043 31.3883 77.6484 31.5381C77.8926 31.6911 78.2409 31.7676 78.6934 31.7676ZM78.9033 27.4902C79.2907 27.4902 79.582 27.3926 79.7773 27.1973C79.9727 27.002 80.0703 26.7171 80.0703 26.3428C80.0703 25.9424 79.971 25.6429 79.7725 25.4443C79.5739 25.2425 79.2809 25.1416 78.8936 25.1416C78.5225 25.1416 78.236 25.2458 78.0342 25.4541C77.8356 25.6592 77.7363 25.9603 77.7363 26.3574C77.7363 26.722 77.8372 27.002 78.0391 27.1973C78.2409 27.3926 78.529 27.4902 78.9033 27.4902Z" fill="black"/>
</g>
<defs>
<filter id="filter0_ddd_1949_1811" x="0" y="0" width="110" height="56" filterUnits="userSpaceOnUse" color-interpolation-filters="sRGB">
<feFlood flood-opacity="0" result="BackgroundImageFix"/>
<feColorMatrix in="SourceAlpha" type="matrix" values="0 0 0 0 0 0 0 0 0 0 0 0 0 0 0 0 0 0 127 0" result="hardAlpha"/>
<feOffset dy="4"/>
<feGaussianBlur stdDeviation="8"/>
<feComposite in2="hardAlpha" operator="out"/>
<feColorMatrix type="matrix" values="0 0 0 0 0.12549 0 0 0 0 0.12549 0 0 0 0 0.129412 0 0 0 0.08 0"/>
<feBlend mode="normal" in2="BackgroundImageFix" result="effect1_dropShadow_1949_1811"/>
<feColorMatrix in="SourceAlpha" type="matrix" values="0 0 0 0 0 0 0 0 0 0 0 0 0 0 0 0 0 0 127 0" result="hardAlpha"/>
<feOffset dy="2"/>
<feGaussianBlur stdDeviation="2"/>
<feComposite in2="hardAlpha" operator="out"/>
<feColorMatrix type="matrix" values="0 0 0 0 0.127014 0 0 0 0 0.127444 0 0 0 0 0.129167 0 0 0 0.04 0"/>
<feBlend mode="normal" in2="effect1_dropShadow_1949_1811" result="effect2_dropShadow_1949_1811"/>
<feColorMatrix in="SourceAlpha" type="matrix" values="0 0 0 0 0 0 0 0 0 0 0 0 0 0 0 0 0 0 127 0" result="hardAlpha"/>
<feOffset/>
<feGaussianBlur stdDeviation="8"/>
<feComposite in2="hardAlpha" operator="out"/>
<feColorMatrix type="matrix" values="0 0 0 0 1 0 0 0 0 0.643137 0 0 0 0 0.639216 0 0 0 0.1 0"/>
<feBlend mode="normal" in2="effect2_dropShadow_1949_1811" result="effect3_dropShadow_1949_1811"/>
<feBlend mode="normal" in="SourceGraphic" in2="effect3_dropShadow_1949_1811" result="shape"/>
</filter>
</defs>
</svg>
