<svg xmlns="http://www.w3.org/2000/svg" width="32" height="32" viewBox="0 0 32 32" fill="none">
  <g clip-path="url(#clip0_3221_24124)">
    <path d="M23.1111 12.4443C22.5778 12.4443 22.2222 12.7999 22.2222 13.3332V23.8221C22.2222 24.5332 21.6889 24.8888 21.1556 24.8888H10.8444C10.1333 24.8888 9.77778 24.3554 9.77778 23.8221V13.3332C9.77778 12.7999 9.42222 12.4443 8.88889 12.4443C8.35556 12.4443 8 12.7999 8 13.3332V23.8221C8 25.4221 9.24444 26.6666 10.8444 26.6666H20.9778C22.5778 26.6666 23.8222 25.4221 23.8222 23.8221V13.3332C24 12.7999 23.6444 12.4443 23.1111 12.4443Z" fill="#F48C8A"/>
    <path d="M14.5786 22.2221V13.3332C14.5786 12.7999 14.223 12.4443 13.8674 12.4443C13.5119 12.4443 12.8008 12.7999 12.8008 13.3332V22.2221C12.8008 22.7554 13.1563 23.111 13.6897 23.111C14.223 23.111 14.5786 22.7554 14.5786 22.2221Z" fill="#F48C8A"/>
    <path d="M19.2006 22.2221V13.3332C19.2006 12.7999 18.6673 12.4443 18.134 12.4443C17.6006 12.4443 17.4229 12.7999 17.4229 13.3332V22.2221C17.4229 22.7554 17.7784 23.111 18.134 23.111C18.4895 23.111 19.2006 22.7554 19.2006 22.2221Z" fill="#F48C8A"/>
    <path d="M24.8893 8.88881H20.4449V7.64436C20.4449 6.39992 19.3782 5.33325 18.1338 5.33325H13.8671C12.6227 5.33325 11.556 6.39992 11.556 7.64436V8.88881H7.11155C6.57821 8.88881 6.22266 9.24436 6.22266 9.7777C6.22266 10.311 6.57821 10.6666 7.11155 10.6666H24.8893C25.4227 10.6666 25.7782 10.311 25.7782 9.7777C25.7782 9.24436 25.4227 8.88881 24.8893 8.88881ZM13.3338 7.64436C13.3338 7.28881 13.5115 7.11103 13.8671 7.11103H18.1338C18.4893 7.11103 18.6671 7.28881 18.6671 7.64436V8.88881H13.3338V7.64436Z" fill="#F48C8A"/>
  </g>
  <defs>
    <clipPath id="clip0_3221_24124">
      <rect width="32" height="32" fill="white"/>
    </clipPath>
  </defs>
</svg>