<svg width="16" height="17" viewBox="0 0 16 17" fill="none" xmlns="http://www.w3.org/2000/svg">
<g id="Layer_1" clip-path="url(#clip0_2580_15128)">
<path id="Vector" d="M14.1043 7.3438C14.0398 7.29047 13.9576 7.26158 13.8754 7.26158C13.7621 7.26158 13.6576 7.31269 13.5887 7.39936L13.1865 7.90158C13.1665 7.70602 13.1376 7.51047 13.0976 7.32158C12.9598 6.65714 12.711 6.02825 12.3576 5.45714C12.0176 4.9038 11.5865 4.41491 11.0798 4.00602C10.0643 3.1838 8.79096 2.73047 7.49318 2.73047C7.10207 2.73047 6.70651 2.77269 6.31985 2.85269C5.56207 3.01047 4.85984 3.31491 4.22873 3.75491C3.61985 4.17936 3.10429 4.71269 2.6954 5.33936C2.28873 5.96602 2.00873 6.65491 1.86429 7.38602C1.7154 8.1438 1.71984 8.91269 1.87762 9.67491C2.0154 10.3394 2.26429 10.9682 2.61762 11.5394C2.95762 12.0927 3.38873 12.5816 3.8954 12.9905C4.91096 13.8127 6.18429 14.266 7.48207 14.266C7.87318 14.266 8.26873 14.2238 8.65762 14.1438C9.73096 13.9194 10.7176 13.3794 11.5087 12.5838C11.5087 12.5838 11.5154 12.5771 11.5176 12.5749C11.5287 12.5616 11.5376 12.5505 11.5421 12.5416C11.5443 12.5371 11.5465 12.5327 11.5487 12.5327L11.5532 12.526L11.5576 12.5194C11.5887 12.466 11.6043 12.4105 11.6043 12.3571C11.6043 12.1816 11.4621 12.0416 11.2887 12.0416C11.2221 12.0416 11.1576 12.0638 11.1043 12.1038L11.0998 12.0994L11.0554 12.1438C10.3576 12.8438 9.48429 13.3194 8.53096 13.5194C8.18873 13.5905 7.83984 13.6282 7.4954 13.6282C5.1154 13.6282 3.03762 11.9238 2.55096 9.57491C1.98207 6.82825 3.73985 4.12602 6.46873 3.55491C6.81096 3.4838 7.15984 3.44602 7.50429 3.44602C9.88429 3.44602 11.9621 5.15047 12.4487 7.49936C12.4798 7.65491 12.5065 7.81047 12.5243 7.96825L12.0332 7.57269C11.9687 7.51936 11.8865 7.49047 11.8021 7.49047C11.691 7.49047 11.5843 7.54158 11.5154 7.62825C11.3887 7.78602 11.4132 8.01936 11.571 8.14825L12.7332 9.08602C12.8065 9.13714 12.8976 9.16158 12.9887 9.15047C13.0865 9.13936 13.1754 9.09269 13.2354 9.01714L13.2398 9.01269V9.00825L14.1554 7.8638C14.2821 7.70602 14.2554 7.47269 14.0998 7.3438H14.1043Z" fill="#675D59" stroke="#675D59" stroke-width="0.75" stroke-miterlimit="10"/>
</g>
<defs>
<clipPath id="clip0_2580_15128">
<rect width="16" height="16" fill="white" transform="translate(0 0.5)"/>
</clipPath>
</defs>
</svg>
