<svg width="24" height="24" viewBox="0 0 24 24" fill="none" xmlns="http://www.w3.org/2000/svg">
<g id="Verified and approved" clip-path="url(#clip0_9221_660)">
<g id="Vector">
<path fill-rule="evenodd" clip-rule="evenodd" d="M10.635 2.53028C11.3961 1.82324 12.6039 1.82324 13.365 2.53028L14.7642 3.83019L16.6919 3.56836C17.7403 3.42594 18.7175 4.10771 18.9004 5.10931L19.2368 6.95078L20.9566 7.82704C21.892 8.30364 22.2652 9.40677 21.8002 10.3203L20.9452 12L21.8002 13.6797C22.2652 14.5932 21.892 15.6964 20.9566 16.173L19.2368 17.0492L18.9004 18.8907C18.7175 19.8923 17.7403 20.5741 16.6919 20.4316L14.7642 20.1698L13.365 21.4697C12.6039 22.1768 11.3961 22.1768 10.635 21.4697L9.23578 20.1698L7.30813 20.4316C6.25966 20.5741 5.28251 19.8923 5.09956 18.8907L4.76319 17.0492L3.04342 16.173C2.10803 15.6964 1.73479 14.5932 2.19982 13.6797L3.05481 12L2.19982 10.3203C1.73479 9.40677 2.10802 8.30365 3.04342 7.82704L4.76319 6.95078L5.09956 5.10931C5.28251 4.10772 6.25966 3.42594 7.30813 3.56836L9.23578 3.83019L10.635 2.53028ZM13.3992 5.18517L12 3.88526L10.6008 5.18517C10.1655 5.58949 9.5604 5.77831 8.96084 5.69687L7.03319 5.43503L6.69682 7.27651C6.5922 7.84926 6.2182 8.34361 5.6833 8.61615L3.96353 9.49241L4.81852 11.1721C5.08445 11.6945 5.08445 12.3055 4.81852 12.8279L3.96353 14.5076L5.6833 15.3839C6.2182 15.6564 6.5922 16.1507 6.69682 16.7235L7.03319 18.565L8.96084 18.3031C9.5604 18.2217 10.1655 18.4105 10.6008 18.8148L12 20.1147L13.3992 18.8148C13.8345 18.4105 14.4396 18.2217 15.0392 18.3031L16.9668 18.565L17.3032 16.7235C17.4078 16.1507 17.7818 15.6564 18.3167 15.3839L20.0365 14.5076L19.1815 12.8279C18.9156 12.3055 18.9156 11.6945 19.1815 11.1721L20.0365 9.49241L18.3167 8.61615C17.7818 8.3436 17.4078 7.84926 17.3032 7.27651L16.9668 5.43503L15.0392 5.69687C14.4396 5.77831 13.8345 5.58949 13.3992 5.18517Z" fill="#675D59"/>
<path fill-rule="evenodd" clip-rule="evenodd" d="M15.6161 9.42706C16.0116 9.78312 16.0316 10.3797 15.6608 10.7594L11.9799 14.53C11.7943 14.72 11.5351 14.8279 11.2638 14.8279C10.9925 14.8279 10.7333 14.72 10.5477 14.53L8.33917 12.2677C7.9684 11.8879 7.98844 11.2913 8.38393 10.9353C8.77942 10.5792 9.4006 10.5985 9.77137 10.9782L11.2638 12.507L14.2286 9.47004C14.5994 9.09025 15.2206 9.07101 15.6161 9.42706Z" fill="#675D59"/>
</g>
</g>
<defs>
<clipPath id="clip0_9221_660">
<rect width="24" height="24" fill="white"/>
</clipPath>
</defs>
</svg>
