<svg width="13" height="13" viewBox="0 0 13 13" fill="none" xmlns="http://www.w3.org/2000/svg">
<g id="history">
<g id="Vector">
<path fill-rule="evenodd" clip-rule="evenodd" d="M5.89554 1.92002C6.92651 1.71714 7.99703 1.87351 8.92499 2.36308C9.85308 2.85271 10.5819 3.64581 10.9859 4.60849C11.39 5.57129 11.4435 6.64307 11.1373 7.64075C10.8311 8.63831 10.1845 9.49875 9.30935 10.0764C8.43432 10.654 7.3844 10.9136 6.33834 10.8119C5.29225 10.7102 4.31318 10.2533 3.56834 9.51764C3.37187 9.3236 3.36991 9.00702 3.56396 8.81055C3.758 8.61408 4.07458 8.61211 4.27105 8.80616C4.85141 9.37937 5.61608 9.73696 6.43511 9.81659C7.25417 9.89623 8.07532 9.69278 8.75846 9.24185C9.44148 8.791 9.94378 8.1211 10.1813 7.3473C10.4188 6.57359 10.3774 5.74259 10.0638 4.99545C9.75024 4.24819 9.18337 3.63002 8.45838 3.24754C7.73327 2.86499 6.89567 2.74239 6.08863 2.90121C5.28166 3.06001 4.55666 3.49005 4.03651 4.11651C3.51648 4.74283 3.23314 5.5269 3.2335 6.33502V7.22235C3.2335 7.49849 3.00964 7.72235 2.7335 7.72235C2.45735 7.72235 2.2335 7.49849 2.2335 7.22235V6.33532C2.23309 5.29252 2.59884 4.2826 3.26714 3.4777C3.93538 2.67288 4.86452 2.12292 5.89554 1.92002Z" fill="#675D59"/>
<path fill-rule="evenodd" clip-rule="evenodd" d="M6.3335 4.0557C6.60964 4.0557 6.8335 4.27956 6.8335 4.5557V6.27792H8.5835C8.85964 6.27792 9.0835 6.50178 9.0835 6.77792C9.0835 7.05406 8.85964 7.27792 8.5835 7.27792H6.3335C6.05735 7.27792 5.8335 7.05406 5.8335 6.77792V4.5557C5.8335 4.27956 6.05735 4.0557 6.3335 4.0557ZM1.47775 5.98213C1.6718 5.78565 1.98838 5.78369 2.18485 5.97773L2.7335 6.51961L3.28215 5.97773C3.47862 5.78369 3.79519 5.78565 3.98924 5.98213C4.18328 6.1786 4.18132 6.49517 3.98485 6.68922L3.08485 7.57811C2.8901 7.77045 2.57689 7.77045 2.38215 7.57811L1.48215 6.68922C1.28567 6.49517 1.28371 6.1786 1.47775 5.98213Z" fill="#675D59"/>
</g>
</g>
</svg>
