<svg width="20" height="20" viewBox="0 0 20 20" fill="none" xmlns="http://www.w3.org/2000/svg">
<g id="Group 692">
<g id="Vector">
<path fill-rule="evenodd" clip-rule="evenodd" d="M8.63503 0.530276C9.39609 -0.176758 10.6039 -0.176759 11.365 0.530276L12.7642 1.83019L14.6919 1.56836C15.7403 1.42594 16.7175 2.10771 16.9004 3.10931L17.2368 4.95078L18.9566 5.82704C19.892 6.30364 20.2652 7.40677 19.8002 8.32035L18.9452 10L19.8002 11.6797C20.2652 12.5932 19.892 13.6964 18.9566 14.173L17.2368 15.0492L16.9004 16.8907C16.7175 17.8923 15.7403 18.5741 14.6919 18.4316L12.7642 18.1698L11.365 19.4697C10.6039 20.1768 9.39609 20.1768 8.63503 19.4697L7.23578 18.1698L5.30813 18.4316C4.25966 18.5741 3.28251 17.8923 3.09956 16.8907L2.76319 15.0492L1.04342 14.173C0.108027 13.6964 -0.265213 12.5932 0.199822 11.6797L1.05481 10L0.199822 8.32035C-0.265212 7.40677 0.108025 6.30364 1.04342 5.82704L2.76319 4.95078L3.09956 3.10931C3.28251 2.10772 4.25966 1.42594 5.30813 1.56836L7.23578 1.83019L8.63503 0.530276ZM11.3992 3.18517L10 1.88525L8.60075 3.18517C8.16555 3.58949 7.5604 3.77831 6.96084 3.69687L5.03319 3.43503L4.69682 5.27651C4.5922 5.84926 4.2182 6.3436 3.6833 6.61615L1.96353 7.49241L2.81852 9.17206C3.08445 9.69448 3.08445 10.3055 2.81852 10.8279L1.96353 12.5076L3.6833 13.3839C4.2182 13.6564 4.5922 14.1507 4.69682 14.7235L5.03319 16.565L6.96084 16.3031C7.5604 16.2217 8.16555 16.4105 8.60075 16.8148L10 18.1147L11.3992 16.8148C11.8345 16.4105 12.4396 16.2217 13.0392 16.3031L14.9668 16.565L15.3032 14.7235C15.4078 14.1507 15.7818 13.6564 16.3167 13.3839L18.0365 12.5076L17.1815 10.8279C16.9156 10.3055 16.9156 9.69448 17.1815 9.17206L18.0365 7.4924L16.3167 6.61615C15.7818 6.3436 15.4078 5.84926 15.3032 5.27651L14.9668 3.43503L13.0392 3.69687C12.4396 3.77831 11.8345 3.58949 11.3992 3.18517Z" fill="#675D59"/>
<path fill-rule="evenodd" clip-rule="evenodd" d="M6.36119 6.50558C6.74452 6.13746 7.36602 6.13746 7.74935 6.50558L10 8.66692L12.2507 6.50558C12.634 6.13746 13.2555 6.13746 13.6388 6.50558C14.0221 6.8737 14.0221 7.47054 13.6388 7.83866L11.3882 10L13.6388 12.1613C14.0221 12.5295 14.0221 13.1263 13.6388 13.4944C13.2555 13.8625 12.634 13.8625 12.2507 13.4944L10 11.3331L7.74935 13.4944C7.36602 13.8625 6.74452 13.8625 6.36119 13.4944C5.97786 13.1263 5.97786 12.5295 6.36119 12.1613L8.61184 10L6.36119 7.83866C5.97786 7.47054 5.97786 6.8737 6.36119 6.50558Z" fill="#675D59"/>
</g>
</g>
</svg>
