<svg width="25" height="29" viewBox="0 0 25 29" fill="none" xmlns="http://www.w3.org/2000/svg">
<g id="Group">
<path id="Vector" d="M12.0327 1.19264C12.0945 1.10386 12.1733 1.03208 12.2632 0.982723C12.3532 0.933364 12.4519 0.907715 12.5519 0.907715C12.6519 0.907715 12.7506 0.933364 12.8406 0.982723C12.9305 1.03208 13.0093 1.10386 13.0711 1.19264L15.0609 4.04715C15.1416 4.16324 15.2511 4.24965 15.3755 4.29539C15.4999 4.34113 15.6335 4.34415 15.7593 4.30405L18.8557 3.31366C18.9518 3.28275 19.0529 3.27688 19.1514 3.29651C19.2498 3.31613 19.343 3.36074 19.424 3.42696C19.5049 3.49318 19.5715 3.57928 19.6186 3.67876C19.6657 3.77824 19.6922 3.88851 19.696 4.00123L19.817 7.63142C19.8221 7.77889 19.8659 7.92132 19.9429 8.04065C20.0198 8.15997 20.1265 8.2508 20.2493 8.30161L23.2709 9.55511C23.3647 9.59393 23.4494 9.65629 23.5188 9.73746C23.5881 9.81863 23.6402 9.91651 23.6711 10.0237C23.702 10.1309 23.711 10.2446 23.6973 10.3563C23.6836 10.468 23.6476 10.5747 23.592 10.6684L21.7991 13.6855C21.7263 13.8081 21.6874 13.9524 21.6874 14.1C21.6874 14.2476 21.7263 14.3919 21.7991 14.5145L23.592 17.5316C23.6476 17.6253 23.6836 17.732 23.6973 17.8437C23.711 17.9553 23.702 18.0691 23.6711 18.1763C23.6402 18.2835 23.5881 18.3813 23.5188 18.4625C23.4494 18.5437 23.3647 18.606 23.2709 18.6449L20.2493 19.8984C20.1267 19.9494 20.0203 20.0403 19.9435 20.1596C19.8668 20.2789 19.8231 20.4212 19.8181 20.5686L19.696 24.1987C19.6922 24.3115 19.6657 24.4217 19.6186 24.5212C19.5715 24.6207 19.5049 24.7068 19.424 24.773C19.343 24.8392 19.2498 24.8838 19.1514 24.9035C19.0529 24.9231 18.9518 24.9172 18.8557 24.8863L15.7593 23.8959C15.6334 23.8554 15.4996 23.8581 15.3751 23.9036C15.2505 23.9492 15.1407 24.0355 15.0598 24.1516L13.0722 27.0073C13.0104 27.0961 12.9316 27.1679 12.8417 27.2172C12.7517 27.2666 12.653 27.2923 12.553 27.2923C12.453 27.2923 12.3543 27.2666 12.2643 27.2172C12.1744 27.1679 12.0956 27.0961 12.0338 27.0073L10.044 24.1528C9.96327 24.0367 9.85376 23.9503 9.7294 23.9046C9.60504 23.8588 9.47144 23.8558 9.34556 23.8959L6.24922 24.8863C6.15307 24.9172 6.05196 24.9231 5.95351 24.9035C5.85506 24.8838 5.76185 24.8392 5.68092 24.773C5.59998 24.7068 5.53344 24.6207 5.48631 24.5212C5.43918 24.4217 5.4127 24.3115 5.40886 24.1987L5.28787 20.5686C5.28278 20.4211 5.23898 20.2786 5.16201 20.1593C5.08504 20.04 4.97839 19.9492 4.85559 19.8984L1.83404 18.6449C1.74024 18.606 1.65548 18.5437 1.58614 18.4625C1.5168 18.3813 1.46471 18.2835 1.43378 18.1763C1.40285 18.0691 1.3939 17.9553 1.4076 17.8437C1.4213 17.732 1.45729 17.6253 1.51286 17.5316L3.30577 14.5145C3.37859 14.3919 3.41748 14.2476 3.41748 14.1C3.41748 13.9524 3.37859 13.8081 3.30577 13.6855L1.51286 10.6684C1.45729 10.5747 1.4213 10.468 1.4076 10.3563C1.3939 10.2446 1.40285 10.1309 1.43378 10.0237C1.46471 9.91651 1.5168 9.81863 1.58614 9.73746C1.65548 9.65629 1.74024 9.59393 1.83404 9.55511L4.85559 8.30161C4.97818 8.25061 5.0846 8.15969 5.16136 8.04038C5.23812 7.92107 5.28177 7.77874 5.28677 7.63142L5.40886 4.00123C5.4127 3.88851 5.43918 3.77824 5.48631 3.67876C5.53344 3.57928 5.59998 3.49318 5.68092 3.42696C5.76185 3.36074 5.85506 3.31613 5.95351 3.29651C6.05196 3.27688 6.15307 3.28275 6.24922 3.31366L9.34556 4.30405C9.47144 4.34415 9.60504 4.34113 9.7294 4.29539C9.85376 4.24965 9.96327 4.16324 10.044 4.04715L12.0349 1.19264H12.0327Z" stroke="url(#paint0_linear_5954_48157)" stroke-width="1.78417"/>
<path id="Vector_2" d="M9.25391 14.0999L11.4538 16.582L15.8536 11.6177" stroke="url(#paint1_linear_5954_48157)" stroke-width="1.78417" stroke-linecap="round" stroke-linejoin="round"/>
</g>
<defs>
<linearGradient id="paint0_linear_5954_48157" x1="1.40137" y1="14.1" x2="23.7035" y2="14.1" gradientUnits="userSpaceOnUse">
<stop stop-color="#F48C8A"/>
<stop offset="1" stop-color="#F0A484"/>
</linearGradient>
<linearGradient id="paint1_linear_5954_48157" x1="9.25391" y1="14.0999" x2="15.8536" y2="14.0999" gradientUnits="userSpaceOnUse">
<stop stop-color="#F48C8A"/>
<stop offset="1" stop-color="#F0A484"/>
</linearGradient>
</defs>
</svg>
