<svg width="36" height="36" viewBox="0 0 36 36" fill="none" xmlns="http://www.w3.org/2000/svg">
<path d="M30.666 29.25H5.33404C4.04698 29.25 3 28.0018 3 26.4676V9.53236C3 7.99818 4.04698 6.75 5.33404 6.75H30.666C31.953 6.75 33 7.99818 33 9.53236V26.4676C33 28.0018 31.953 29.25 30.666 29.25ZM5.33404 8.63211C4.91771 8.63211 4.57895 9.03591 4.57895 9.53236V26.4676C4.57895 26.9641 4.91771 27.3679 5.33404 27.3679H30.666C31.0823 27.3679 31.4211 26.9641 31.4211 26.4676V9.53236C31.4211 9.03591 31.0823 8.63211 30.666 8.63211H5.33404Z" fill="#352C29"/>
<path d="M18.0006 19.0115C17.1705 19.0115 16.3405 18.7264 15.6164 18.1561L3.9043 8.90912L4.77611 7.33984L16.4875 16.5862C17.4069 17.3104 18.5953 17.31 19.5151 16.5857L31.2256 7.33984L32.0975 8.90912L20.3861 18.1555C19.6614 18.7262 18.8309 19.0115 18.0006 19.0115Z" fill="#352C29"/>
</svg>
