<svg width="49" height="48" viewBox="0 0 49 48" fill="none" xmlns="http://www.w3.org/2000/svg">
<g id="Phone call">
<path id="Vector (Stroke)" fill-rule="evenodd" clip-rule="evenodd" d="M17.9862 10.1878C18.0577 10.3206 18.1337 10.4941 18.2126 10.7158C18.2287 10.7611 18.2452 10.8073 18.262 10.8544C18.6708 12.0018 19.2629 13.6636 19.3862 15.0148L17.159 19.0251C16.8443 19.5917 16.8238 20.2757 17.104 20.8602C18.3675 23.4959 19.6144 25.5124 21.3009 27.199C22.9874 28.8855 25.0039 30.1326 27.6399 31.396C28.2246 31.6763 28.909 31.6556 29.4757 31.3405L33.4832 29.1125C34.8203 29.2344 36.4572 29.8145 37.6054 30.2215C37.667 30.2433 37.7272 30.2646 37.7858 30.2853C38.0052 30.3629 38.1775 30.4382 38.3096 30.5094C38.4019 30.5591 38.463 30.6006 38.5012 30.6302V32.6034C38.5012 36.2142 35.6526 38.5602 32.8757 37.8547C27.5177 36.4813 22.6273 33.6932 18.7161 29.7823C14.8252 25.8917 12.0457 21.0321 10.6647 15.7071C10.6589 15.6799 10.6526 15.6527 10.6457 15.6255C9.93876 12.8486 12.2869 9.99882 15.8949 9.99882H17.8675C17.8967 10.0369 17.9374 10.0972 17.9862 10.1878ZM6.74567 16.5124C5.29999 10.5584 10.4783 6 15.8949 6H17.9454C19.1209 6 20.0675 6.49556 20.7492 7.22169C21.3701 7.88298 21.738 8.69488 21.9801 9.37548C22.0059 9.44796 22.0352 9.52924 22.0674 9.61853C22.4894 10.7892 23.4081 13.3373 23.4081 15.4913C23.4081 15.831 23.3215 16.1651 23.1566 16.4621L21.1641 20.0498C22.1496 21.9765 23.0557 23.2986 24.1286 24.3714C25.2013 25.4442 26.5232 26.3503 28.4496 27.3357L32.0346 25.3426C32.3317 25.1774 32.6661 25.0907 33.0061 25.0907C35.1497 25.0907 37.684 26.0005 38.8576 26.4219C38.9541 26.4565 39.0414 26.4879 39.1185 26.5151C39.8022 26.7568 40.6147 27.1256 41.2767 27.7474C42.0018 28.4285 42.5 29.3757 42.5 30.5531V32.6034C42.5 38.0544 37.8902 43.2574 31.8875 41.7295L31.8843 41.7287C25.8315 40.1775 20.3069 37.028 15.8886 32.61C11.4702 28.1919 8.32057 22.6676 6.76919 16.6152C6.76042 16.5809 6.75258 16.5467 6.74567 16.5124Z" fill="#675D59"/>
</g>
</svg>
