<svg width="36" height="36" viewBox="0 0 36 36" fill="none" xmlns="http://www.w3.org/2000/svg">
<g clip-path="url(#clip0_5424_6338)">
<path d="M30.8945 28.4289C32.3685 26.9547 32.3685 24.5549 30.8945 23.0795L28.528 20.7129C27.1039 19.2886 24.6045 19.2873 23.179 20.7129L21.6973 22.1934C21.0248 22.8647 19.9586 22.9324 19.2171 22.3481C17.5219 21.0146 15.9877 19.4791 14.6543 17.7838C14.07 17.0422 14.1365 15.9759 14.809 15.3034L16.2894 13.8216C17.0015 13.1094 17.394 12.1595 17.394 11.1469C17.394 10.1343 17.0015 9.18433 16.2894 8.47219L13.923 6.10561C12.449 4.63146 10.0493 4.63146 8.57398 6.10561L8.35409 6.32552C5.93142 8.74835 5.31137 12.4318 6.80844 15.4939C8.12013 18.1776 9.62103 20.5288 13.046 23.954C16.471 27.3792 18.822 28.8802 21.5055 30.192C22.6178 30.7366 23.8131 31 24.9995 31C27.0783 31 29.1315 30.1881 30.6733 28.6462L30.8932 28.4263L30.8945 28.4289ZM29.538 27.0723L29.3181 27.2922C27.4759 29.1359 24.6735 29.609 22.348 28.4711C19.8422 27.2462 17.6382 25.836 14.4024 22.6C11.1667 19.364 9.75655 17.1598 8.53179 14.6539C7.39397 12.3283 7.867 9.52698 9.71052 7.68333L9.93042 7.46342C10.2935 7.10032 10.7716 6.91876 11.2485 6.91876C11.7254 6.91876 12.2035 7.10032 12.5666 7.46342L14.933 9.82999C15.2833 10.1803 15.4751 10.6483 15.4751 11.1494C15.4751 11.6506 15.2833 12.1173 14.933 12.4676L13.4525 13.9494C12.0936 15.3072 11.9606 17.468 13.147 18.9728C14.5738 20.787 16.2166 22.43 18.0307 23.8568C19.5367 25.042 21.6947 24.9116 23.0537 23.5512L24.5354 22.0707C25.236 21.3701 26.4736 21.3701 27.1729 22.0707L29.5393 24.4373C30.2655 25.1648 30.2655 26.3474 29.5393 27.0736L29.538 27.0723Z" fill="#352C29"/>
</g>
<defs>
<clipPath id="clip0_5424_6338">
<rect width="36" height="36" fill="white"/>
</clipPath>
</defs>
</svg>
