<svg width="36" height="36" viewBox="0 0 36 36" fill="none" xmlns="http://www.w3.org/2000/svg">
<path d="M28.7473 9.04C26.1787 5.96168 22.3157 4 18 4C13.6843 4 9.82802 5.95832 7.25605 9.03329C7.21581 9.07018 7.18228 9.11042 7.15545 9.15737C5.18371 11.5684 4 14.6501 4 18C4 21.3499 5.18707 24.435 7.1588 26.846C7.18563 26.8896 7.21581 26.9265 7.2527 26.96C9.82132 30.0383 13.6843 32 18 32C22.3157 32 26.172 30.0417 28.744 26.9667C28.7842 26.9298 28.8177 26.8896 28.8446 26.8426C30.8163 24.4316 32 21.3499 32 18C32 14.6501 30.8129 11.565 28.8412 9.15401C28.8144 9.11042 28.7842 9.07353 28.7473 9.04ZM28.2141 25.7495C27.359 25.2129 26.3899 24.7535 25.3404 24.3746C25.8702 22.6242 26.1887 20.6659 26.239 18.5902H30.8096C30.6889 21.2728 29.7399 23.7408 28.2108 25.7495H28.2141ZM5.18707 18.5868H9.75761C9.8079 20.6625 10.1265 22.6242 10.6563 24.3746C9.60671 24.7535 8.63761 25.2129 7.78252 25.7495C6.25677 23.7408 5.30443 21.2728 5.18371 18.5902L5.18707 18.5868ZM7.78587 10.2539C8.64096 10.7904 9.61006 11.2498 10.6596 11.6287C10.1298 13.3792 9.81126 15.3375 9.76096 17.4132H5.18707C5.30778 14.7305 6.25677 12.2625 7.78587 10.2539ZM18.5868 17.4132V12.8292C20.5787 12.7823 22.5035 12.4872 24.2438 11.9808C24.7234 13.6139 25.0151 15.4582 25.0654 17.4132H18.5868ZM18.5868 11.6556V5.2206C20.7899 5.54922 22.708 7.7121 23.8783 10.8675C22.2553 11.337 20.458 11.6086 18.5868 11.6556ZM17.4132 11.6556C15.5454 11.6086 13.748 11.337 12.1217 10.8675C13.2886 7.7121 15.2101 5.54922 17.4132 5.2206V11.6556ZM17.4132 12.8292V17.4132H10.9346C10.9849 15.4582 11.2766 13.6139 11.7562 11.9808C13.4999 12.4872 15.4213 12.7823 17.4132 12.8292ZM10.9346 18.5868H17.4132V23.1708C15.4213 23.2177 13.4965 23.5128 11.7562 24.0192C11.2766 22.3861 10.9849 20.5418 10.9346 18.5868ZM17.4132 24.3444V30.7794C15.2101 30.4508 13.292 28.2879 12.1217 25.1325C13.7447 24.663 15.542 24.3914 17.4132 24.3444ZM18.5868 24.3444C20.4546 24.3914 22.252 24.663 23.8783 25.1325C22.7114 28.2879 20.7899 30.4508 18.5868 30.7794V24.3444ZM18.5868 23.1708V18.5868H25.0654C25.0151 20.5418 24.7234 22.3861 24.2438 24.0192C22.5001 23.5128 20.5787 23.2177 18.5868 23.1708ZM26.239 17.4132C26.1887 15.3375 25.8702 13.3758 25.3404 11.6254C26.3899 11.2465 27.359 10.7871 28.2141 10.2505C29.7399 12.2592 30.6922 14.7272 30.8129 17.4098H26.2424L26.239 17.4132ZM24.9648 10.5154C24.2438 8.58731 23.2546 6.98108 22.0843 5.84431C24.1634 6.54515 26.0043 7.75904 27.4529 9.3418C26.7085 9.79449 25.8702 10.1868 24.9648 10.5154ZM11.0352 10.5154C10.1298 10.1868 9.2915 9.79449 8.54707 9.3418C9.99904 7.75904 11.84 6.54515 13.9157 5.84431C12.7454 6.98108 11.7562 8.59066 11.0352 10.5154ZM11.0352 25.4812C11.7562 27.4093 12.7454 29.0156 13.9157 30.1523C11.8366 29.4515 9.99569 28.2376 8.54707 26.6549C9.2915 26.2022 10.1298 25.8098 11.0352 25.4812ZM24.9648 25.4812C25.8702 25.8098 26.7085 26.2022 27.4529 26.6549C26.001 28.2376 24.16 29.4515 22.0843 30.1523C23.2546 29.0156 24.2438 27.406 24.9648 25.4812Z" fill="#352C29"/>
</svg>
