<svg width="49" height="48" viewBox="0 0 49 48" fill="none" xmlns="http://www.w3.org/2000/svg">
<g clip-path="url(#clip0_6084_25435)">
<path d="M23.8532 21.7021L16.4669 29.0642C16.1044 29.4139 16.1044 30.0009 16.4669 30.3756C16.8168 30.7252 17.4167 30.7252 17.7792 30.3756L23.572 24.587V37.0446C23.572 37.5504 23.9845 37.9813 24.4969 37.9813C25.0093 37.9813 25.4217 37.5504 25.4217 37.0446V24.587L31.2271 30.3756C31.5895 30.7252 32.1769 30.7252 32.5456 30.3756C32.8893 30.0009 32.8893 29.4202 32.5456 29.0642L25.1405 21.7021L25.103 21.6646L25.0655 21.6271C25.0155 21.5772 24.9718 21.5584 24.9531 21.5272H24.9031C24.8406 21.4773 24.8031 21.4648 24.7531 21.4648L24.6593 21.446L24.5906 21.4273H24.4219L24.3407 21.446L24.2594 21.4648C24.2094 21.4648 24.1594 21.4773 24.1157 21.5022L24.0657 21.521C24.0282 21.5522 23.9845 21.5709 23.9657 21.5897L23.897 21.6396L23.8595 21.7021H23.8532ZM36.545 34.9153C37.8885 34.9028 39.1258 34.3595 39.982 33.4853C40.8693 32.5798 41.413 31.3684 41.413 30.0009C41.413 28.7895 41.0005 27.7029 40.2819 26.8287C39.557 25.9732 38.5259 25.3675 37.3511 25.1677C36.595 25.0178 36.0638 24.3809 36.0638 23.6441V23.6316C36.0638 20.7217 34.8828 18.0616 32.9706 16.157C31.0583 14.2462 28.4025 13.0535 25.503 13.0535C23.3346 13.0535 21.3286 13.6967 19.6664 14.777C17.9417 15.9322 16.5794 17.537 15.7545 19.4603C15.5108 20.0348 14.9671 20.3845 14.3735 20.4095C12.48 20.5094 10.7928 21.3461 9.55546 22.6637C8.3244 23.9438 7.58702 25.7047 7.58702 27.6405C7.58702 29.5763 8.39314 31.4808 9.70544 32.7859H9.72418C11.0365 34.1035 12.8487 34.909 14.8421 34.909H19.9226C20.7787 34.909 21.4723 35.6146 21.4723 36.4514C21.4723 37.2881 20.7787 37.9938 19.9226 37.9938H14.8421C11.9926 37.9938 9.39923 36.8448 7.52453 34.9402C5.66232 33.0794 4.5 30.488 4.5 27.6405C4.5 24.793 5.56858 22.3952 7.32456 20.5406C8.87432 18.917 10.974 17.793 13.3111 17.4184C14.3985 15.3015 16.0107 13.5406 17.9791 12.2542C20.1351 10.8243 22.7159 10 25.4967 10C29.2461 10 32.6643 11.5236 35.1452 13.9902C37.3511 16.207 38.8134 19.1668 39.1071 22.4514C40.4756 22.9072 41.7004 23.7814 42.6128 24.868C43.7939 26.2605 44.5 28.0589 44.5 30.0071C44.5 32.2239 43.6001 34.2159 42.1629 35.6646H42.1504C40.8881 36.9322 39.1946 37.7565 37.3136 37.9688C37.2011 37.9813 37.0824 38 36.9637 38H29.6086C28.765 38 28.0776 37.2944 28.0776 36.4576C28.0776 35.6209 28.765 34.9153 29.6086 34.9153H36.5512H36.545Z" fill="#FBFCFF"/>
</g>
<defs>
<clipPath id="clip0_6084_25435">
<rect width="48" height="48" fill="white" transform="translate(0.5)"/>
</clipPath>
</defs>
</svg>
