<svg width="48" height="48" viewBox="0 0 48 48" fill="none" xmlns="http://www.w3.org/2000/svg">
<path fill-rule="evenodd" clip-rule="evenodd" d="M4 18C4 14.6863 6.68629 12 10 12H28C31.3137 12 34 14.6863 34 18V30C34 33.3137 31.3137 36 28 36H10C6.68629 36 4 33.3137 4 30V18ZM10 16C8.89543 16 8 16.8954 8 18V30C8 31.1046 8.89543 32 10 32H28C29.1046 32 30 31.1046 30 30V18C30 16.8954 29.1046 16 28 16H10Z" fill="#675D59"/>
<path fill-rule="evenodd" clip-rule="evenodd" d="M43.0113 14.2745C43.6237 14.6335 44 15.2902 44 16V32C44 32.7099 43.6237 33.3665 43.0113 33.7255C42.3989 34.0844 41.6421 34.0918 41.0228 33.745L31.0228 28.145C30.3912 27.7913 30 27.1239 30 26.4V21.6C30 20.8761 30.3912 20.2087 31.0228 19.855L41.0228 14.255C41.6421 13.9082 42.3989 13.9156 43.0113 14.2745ZM34 22.7722V25.2278L40 28.5878V19.4122L34 22.7722Z" fill="#675D59"/>
</svg>
