<svg width="49" height="48" viewBox="0 0 49 48" fill="none" xmlns="http://www.w3.org/2000/svg">
<g id="Voice">
<g id="Vector">
<path fill-rule="evenodd" clip-rule="evenodd" d="M16.5 12C16.5 7.58172 20.0817 4 24.5 4C28.9183 4 32.5 7.58172 32.5 12V20C32.5 24.4183 28.9183 28 24.5 28C20.0817 28 16.5 24.4183 16.5 20V12ZM24.5 8C22.2909 8 20.5 9.79086 20.5 12V20C20.5 22.2091 22.2909 24 24.5 24C26.7091 24 28.5 22.2091 28.5 20V12C28.5 9.79086 26.7091 8 24.5 8Z" fill="#675D59"/>
<path fill-rule="evenodd" clip-rule="evenodd" d="M10.5 19C11.6046 19 12.5 19.8954 12.5 21C12.5 26.2447 17.5722 31 24.5 31C31.4278 31 36.5 26.2447 36.5 21C36.5 19.8954 37.3954 19 38.5 19C39.6046 19 40.5 19.8954 40.5 21C40.5 29.0101 33.0362 35 24.5 35C15.9638 35 8.5 29.0101 8.5 21C8.5 19.8954 9.39543 19 10.5 19Z" fill="#675D59"/>
<path fill-rule="evenodd" clip-rule="evenodd" d="M24.5 32C25.6046 32 26.5 32.8954 26.5 34V42C26.5 43.1046 25.6046 44 24.5 44C23.3954 44 22.5 43.1046 22.5 42V34C22.5 32.8954 23.3954 32 24.5 32Z" fill="#675D59"/>
</g>
</g>
</svg>
