<svg width="35" height="34" viewBox="0 0 35 34" fill="none" xmlns="http://www.w3.org/2000/svg">
<g id="Layer_1" clip-path="url(#clip0_11166_6750)">
<path id="Vector" d="M12.1978 17.4795H6.72048C6.08873 17.4795 5.57422 17.9915 5.57422 18.6201C5.57422 19.2487 6.08873 19.7607 6.72048 19.7607H12.1978C12.8295 19.7607 13.344 19.2487 13.344 18.6201C13.344 17.9915 12.8295 17.4795 12.1978 17.4795ZM12.1978 23.8566H6.72048C6.08873 23.8566 5.57422 24.3685 5.57422 24.9972C5.57422 25.6258 6.08873 26.1378 6.72048 26.1378H12.1978C12.8295 26.1378 13.344 25.6258 13.344 24.9972C13.344 24.3685 12.8295 23.8566 12.1978 23.8566Z" fill="url(#paint0_linear_11166_6750)"/>
<path id="Vector_2" d="M30.5713 17.175V9.5925C30.5713 5.86606 27.6861 2.80067 24.0259 2.48959V1.64061C24.0259 1.01198 23.5114 0.5 22.8796 0.5C22.2479 0.5 21.7333 1.01198 21.7333 1.64061V2.45719H9.13751V1.64061C9.13751 1.01198 8.623 0.5 7.99125 0.5C7.35951 0.5 6.84499 1.01198 6.84499 1.64061V2.47015C3.0415 2.63865 0 5.76885 0 9.5925V25.749C0 29.6828 3.21734 32.8843 7.17064 32.8843H22.6777C22.7624 32.8843 22.8405 32.8778 22.9187 32.8584C23.9672 33.2797 25.0809 33.5 26.2142 33.5C31.0597 33.5 35 29.5791 35 24.7575C35 21.5171 33.2155 18.685 30.5778 17.175H30.5713ZM6.84499 4.75138V7.38904C6.84499 8.01768 7.35951 8.52966 7.99125 8.52966C8.623 8.52966 9.13751 8.01768 9.13751 7.38904V4.74489H21.7333V7.38904C21.7333 8.01768 22.2479 8.52966 22.8796 8.52966C23.5114 8.52966 24.0259 8.01768 24.0259 7.38904V4.78378C26.4226 5.08837 28.2787 7.12981 28.2787 9.5925V11.6923H2.29252V9.5925C2.29252 7.02612 4.30499 4.91987 6.84499 4.75138ZM2.29252 25.7555V13.98H28.2853V16.2677C27.621 16.1057 26.9306 16.0214 26.2207 16.0214C21.3751 16.0214 17.4349 19.9423 17.4349 24.7639C17.4349 27.0128 18.2946 29.0607 19.6948 30.6096H7.16412C4.47432 30.6096 2.29252 28.4321 2.29252 25.7555ZM26.2142 31.2253C22.6321 31.2253 19.7209 28.3284 19.7209 24.7639C19.7209 21.1995 22.6321 18.3026 26.2142 18.3026C29.7962 18.3026 32.7075 21.1995 32.7075 24.7639C32.7075 28.3284 29.7962 31.2253 26.2142 31.2253Z" fill="url(#paint1_linear_11166_6750)"/>
<path id="Vector_3" d="M28.9946 24.2196H26.6109V22.0615C26.6109 21.4329 26.0964 20.9209 25.4646 20.9209C24.8329 20.9209 24.3184 21.4329 24.3184 22.0615V25.3602C24.3184 25.9888 24.8329 26.5008 25.4646 26.5008H28.9946C29.6263 26.5008 30.1408 25.9888 30.1408 25.3602C30.1408 24.7316 29.6263 24.2196 28.9946 24.2196Z" fill="url(#paint2_linear_11166_6750)"/>
</g>
<defs>
<linearGradient id="paint0_linear_11166_6750" x1="5.57422" y1="21.8086" x2="13.344" y2="21.8086" gradientUnits="userSpaceOnUse">
<stop stop-color="#F48C8A"/>
<stop offset="1" stop-color="#F0A484"/>
</linearGradient>
<linearGradient id="paint1_linear_11166_6750" x1="2.6077e-07" y1="17" x2="35" y2="17" gradientUnits="userSpaceOnUse">
<stop stop-color="#F48C8A"/>
<stop offset="1" stop-color="#F0A484"/>
</linearGradient>
<linearGradient id="paint2_linear_11166_6750" x1="24.3184" y1="23.7109" x2="30.1408" y2="23.7109" gradientUnits="userSpaceOnUse">
<stop stop-color="#F48C8A"/>
<stop offset="1" stop-color="#F0A484"/>
</linearGradient>
<clipPath id="clip0_11166_6750">
<rect width="35" height="33" fill="white" transform="translate(0 0.5)"/>
</clipPath>
</defs>
</svg>
