<svg width="27" height="27" viewBox="0 0 27 27" fill="none" xmlns="http://www.w3.org/2000/svg">
<path d="M7.25 14.125C6.90487 14.125 6.625 13.8451 6.625 13.5C6.625 13.1549 6.90487 12.875 7.25 12.875C7.59513 12.875 7.875 13.1549 7.875 13.5C7.875 13.8451 7.59513 14.125 7.25 14.125Z" fill="#352C29" stroke="#675D59" stroke-width="1.875" stroke-linecap="round" stroke-linejoin="round"/>
<path d="M13.5 14.125C13.1549 14.125 12.875 13.8451 12.875 13.5C12.875 13.1549 13.1549 12.875 13.5 12.875C13.8451 12.875 14.125 13.1549 14.125 13.5C14.125 13.8451 13.8451 14.125 13.5 14.125Z" fill="#352C29" stroke="#675D59" stroke-width="1.875" stroke-linecap="round" stroke-linejoin="round"/>
<path d="M19.75 14.125C19.4048 14.125 19.125 13.8451 19.125 13.5C19.125 13.1549 19.4048 12.875 19.75 12.875C20.0952 12.875 20.375 13.1549 20.375 13.5C20.375 13.8451 20.0952 14.125 19.75 14.125Z" fill="#352C29" stroke="#675D59" stroke-width="1.875" stroke-linecap="round" stroke-linejoin="round"/>
<path d="M13.5 26C6.5965 26 1 20.4035 1 13.5C1 6.59644 6.5965 1 13.5 1C20.4036 1 26 6.59644 26 13.5C26 15.7768 25.3913 17.9114 24.3277 19.75L25.375 25.375L19.75 24.3278C17.9114 25.3913 15.7768 26 13.5 26Z" stroke="#675D59" stroke-width="1.875" stroke-linecap="round" stroke-linejoin="round"/>
</svg>
