<svg width="18" height="17" viewBox="0 0 18 17" fill="none" xmlns="http://www.w3.org/2000/svg">
<path d="M1.91504 9.88157C1.91504 10.6144 2.20615 11.3172 2.72432 11.8353C3.24249 12.3535 3.94528 12.6446 4.67809 12.6446C5.41089 12.6446 6.11369 12.3535 6.63186 11.8353C7.15003 11.3172 7.44114 10.6144 7.44114 9.88157M1.91504 9.88157C1.91504 9.14876 2.20615 8.44597 2.72432 7.9278C3.24249 7.40962 3.94528 7.11852 4.67809 7.11852C5.41089 7.11852 6.11369 7.40962 6.63186 7.9278C7.15003 8.44597 7.44114 9.14876 7.44114 9.88157M1.91504 9.88157V4.35547M7.44114 9.88157H10.2042M15.7303 9.88157C15.7303 10.6144 15.4392 11.3172 14.921 11.8353C14.4028 12.3535 13.7 12.6446 12.9672 12.6446C12.2344 12.6446 11.5316 12.3535 11.0135 11.8353C10.4953 11.3172 10.2042 10.6144 10.2042 9.88157M15.7303 9.88157C15.7303 9.14876 15.4392 8.44597 14.921 7.9278C14.4028 7.40962 13.7 7.11852 12.9672 7.11852C12.2344 7.11852 11.5316 7.40962 11.0135 7.9278C10.4953 8.44597 10.2042 9.14876 10.2042 9.88157M15.7303 9.88157V4.35547" stroke="#675D59" stroke-width="1.38152" stroke-linecap="round" stroke-linejoin="round"/>
</svg>
