<svg width="20" height="18" viewBox="0 0 20 18" fill="none" xmlns="http://www.w3.org/2000/svg">
<g id="heart">
<path id="Vector (Stroke)" fill-rule="evenodd" clip-rule="evenodd" d="M13.8748 2C12.7799 2 11.7285 2.44443 10.9539 3.23788L10.7152 3.48224C10.527 3.67487 10.2691 3.78347 9.99986 3.78349C9.73058 3.7835 9.47268 3.67491 9.28451 3.4823L9.04583 3.23799C7.43418 1.588 4.81542 1.58793 3.20374 3.23792C1.59875 4.88108 1.59874 7.54063 3.20374 9.18383M3.20374 9.18383L9.76927 15.9054C9.88769 16.0267 10.0931 16.0325 10.2191 15.9162C11.7234 14.4853 13.1486 12.9905 14.591 11.4776C15.3175 10.7156 16.0484 9.94907 16.7959 9.18382C17.5658 8.39585 18 7.32699 18 6.21087C18 5.09475 17.566 4.02609 16.796 3.23806C16.0213 2.44464 14.9696 2 13.8748 2M8.33855 17.3029L1.77301 10.5813C-0.590996 8.16107 -0.591013 4.26066 1.77301 1.84042C4.01646 -0.456369 7.58727 -0.60292 10.0001 1.40079C11.0861 0.501009 12.4528 0 13.8748 0C15.5139 0 17.0796 0.665735 18.2267 1.84055C19.3654 3.00606 20 4.57785 20 6.21087C20 7.84398 19.3653 9.4159 18.2266 10.5813C17.5156 11.3092 16.8029 12.0566 16.0848 12.8097C14.6203 14.3454 13.1335 15.9045 11.5939 17.3688L11.5886 17.3738C10.6698 18.235 9.2193 18.2046 8.33855 17.3029Z" fill="#675D59"/>
</g>
</svg>
