<svg width="18" height="16" viewBox="0 0 18 16" fill="none" xmlns="http://www.w3.org/2000/svg">
<g id="heart">
<g id="Vector">
<path d="M16.5 5.67572C16.5 6.82126 16.0547 7.92156 15.2594 8.73549C13.4287 10.6096 11.6531 12.5639 9.75399 14.3702C9.31869 14.7782 8.62817 14.7633 8.21162 14.3368L2.74033 8.73549C1.08658 7.04237 1.08658 4.30906 2.74033 2.61598C4.41035 0.906259 7.13097 0.906259 8.80097 2.61598L8.99986 2.81957L9.19862 2.6161C9.99932 1.79593 11.0898 1.33333 12.229 1.33333C13.3682 1.33333 14.4586 1.79588 15.2594 2.61598C16.0547 3.42996 16.5 4.5302 16.5 5.67572Z" fill="#F87D63"/>
<path fill-rule="evenodd" clip-rule="evenodd" d="M12.229 2.16667C11.3166 2.16667 10.4404 2.53702 9.79491 3.19823L9.596 3.40187C9.4392 3.56239 9.2243 3.65289 8.9999 3.6529C8.77551 3.65291 8.56059 3.56243 8.40378 3.40192L8.20488 3.19832C6.86183 1.82333 4.67954 1.82327 3.33647 3.19827C1.99898 4.56757 1.99897 6.78385 3.33647 8.15319M3.33647 8.15319L8.80775 13.7545C8.80774 13.7545 8.80775 13.7545 8.80775 13.7545C8.90643 13.8555 9.07761 13.8604 9.18265 13.7635C10.4361 12.5711 11.6238 11.3254 12.8258 10.0647C13.4313 9.4297 14.0403 8.79089 14.6632 8.15318C15.3049 7.49654 15.6667 6.60582 15.6667 5.67572C15.6667 4.74562 15.305 3.85507 14.6633 3.19838C14.0177 2.5372 13.1414 2.16667 12.229 2.16667M7.61548 14.9191L2.1442 9.31778C0.174191 7.30089 0.174176 4.05055 2.1442 2.03369C4.01374 0.119692 6.98942 -0.00243324 9.0001 1.66732C9.90514 0.917508 11.044 0.5 12.229 0.5C13.595 0.5 14.8997 1.05478 15.8556 2.03379C16.8046 3.00505 17.3334 4.31488 17.3334 5.67572C17.3334 7.03665 16.8044 8.34659 15.8555 9.31779C15.263 9.92434 14.6691 10.5472 14.0707 11.1747C12.8503 12.4545 11.6113 13.7537 10.3283 14.974L10.3239 14.9782C9.5582 15.6959 8.34944 15.6705 7.61548 14.9191Z" fill="#F87D63"/>
</g>
</g>
</svg>
