<svg width="24" height="24" viewBox="0 0 24 24" fill="none" xmlns="http://www.w3.org/2000/svg">
<g id="Left">
<path id="Vector (Stroke)" fill-rule="evenodd" clip-rule="evenodd" d="M12.3516 5.32795C12.7228 5.73692 12.6921 6.36935 12.2832 6.74051L7.58983 11H19C19.5523 11 20 11.4477 20 12C20 12.5523 19.5523 13 19 13H7.58983L12.2832 17.2595C12.6921 17.6307 12.7228 18.2631 12.3516 18.6721C11.9804 19.081 11.348 19.1117 10.9391 18.7405L4.32795 12.7405C4.1191 12.551 4 12.282 4 12C4 11.718 4.1191 11.449 4.32795 11.2595L10.9391 5.2595C11.348 4.88834 11.9804 4.91899 12.3516 5.32795Z" fill="#675D59"/>
</g>
</svg>
