<svg width="18" height="17" viewBox="0 0 18 17" fill="none" xmlns="http://www.w3.org/2000/svg">
<g clip-path="url(#clip0_2052_12767)">
<path d="M14.351 7.1179C14.351 10.1697 8.82493 15.407 8.82493 15.407C8.82493 15.407 3.29883 10.1697 3.29883 7.1179C3.29883 5.65228 3.88104 4.2467 4.91739 3.21035C5.95373 2.17401 7.35931 1.5918 8.82493 1.5918C10.2905 1.5918 11.6961 2.17401 12.7325 3.21035C13.7688 4.2467 14.351 5.65228 14.351 7.1179Z" stroke="#675D59" stroke-width="1.38152"/>
<path d="M8.82357 7.80926C9.00678 7.80926 9.18247 7.73648 9.31202 7.60694C9.44156 7.4774 9.51434 7.3017 9.51434 7.1185C9.51434 6.9353 9.44156 6.7596 9.31202 6.63005C9.18247 6.50051 9.00678 6.42773 8.82357 6.42773C8.64037 6.42773 8.46468 6.50051 8.33513 6.63005C8.20559 6.7596 8.13281 6.9353 8.13281 7.1185C8.13281 7.3017 8.20559 7.4774 8.33513 7.60694C8.46468 7.73648 8.64037 7.80926 8.82357 7.80926Z" fill="#675D59" stroke="#675D59" stroke-width="1.38152" stroke-linecap="round" stroke-linejoin="round"/>
</g>
<defs>
<clipPath id="clip0_2052_12767">
<rect width="16.5783" height="16.5783" fill="white" transform="translate(0.535156 0.210938)"/>
</clipPath>
</defs>
</svg>
