<svg width="12" height="12" viewBox="0 0 12 12" fill="none" xmlns="http://www.w3.org/2000/svg">
<g id="Play">
<path id="Vector" d="M3.02581 1.55002C2.97295 1.51782 2.91272 1.50057 2.85126 1.50001C2.7898 1.49946 2.72929 1.51563 2.67589 1.54688C2.62248 1.57814 2.57807 1.62335 2.54718 1.67794C2.51629 1.73254 2.50001 1.79455 2.5 1.8577V10.1423C2.50001 10.2054 2.51629 10.2675 2.54718 10.3221C2.57807 10.3766 2.62248 10.4219 2.67589 10.4531C2.72929 10.4844 2.7898 10.5005 2.85126 10.5C2.91272 10.4994 2.97295 10.4822 3.02581 10.45L9.82947 6.30768C9.88144 6.276 9.92448 6.23098 9.95438 6.17703C9.98428 6.12309 10 6.06208 10 6C10 5.93792 9.98428 5.87691 9.95438 5.82297C9.92448 5.76902 9.88144 5.724 9.82947 5.69232L3.02581 1.55002Z" stroke="#675D59" stroke-width="2" stroke-linecap="round" stroke-linejoin="round"/>
</g>
</svg>
