<svg width="22" height="22" viewBox="0 0 22 22" fill="none" xmlns="http://www.w3.org/2000/svg">
<g id="Layer 2">
<path id="Vector" d="M21.035 0.964624C20.8124 0.742691 20.5296 0.590982 20.2217 0.528319C19.9137 0.465655 19.5941 0.494796 19.3025 0.612124L1.57249 7.52712C1.24353 7.65308 0.962739 7.87969 0.770153 8.17463C0.577566 8.46957 0.483018 8.81778 0.49999 9.16962C0.512009 9.50589 0.632431 9.82926 0.843289 10.0915C1.05415 10.3537 1.34414 10.5407 1.66999 10.6246L9.23749 12.7021C9.25199 12.7058 9.26523 12.7133 9.2758 12.7238C9.28636 12.7344 9.29386 12.7476 9.29749 12.7621L11.375 20.3296C11.4589 20.6555 11.6459 20.9455 11.9081 21.1563C12.1704 21.3672 12.4937 21.4876 12.83 21.4996H12.9125C13.2504 21.4994 13.5804 21.3968 13.8588 21.2053C14.1373 21.0139 14.3513 20.7426 14.4725 20.4271L21.3875 2.69712C21.5029 2.40524 21.531 2.08611 21.4684 1.77855C21.4058 1.47098 21.2553 1.18822 21.035 0.964624ZM20 2.15712L13.0775 19.8796C13.0672 19.9166 13.0443 19.9487 13.0128 19.9706C12.9813 19.9925 12.9432 20.0028 12.905 19.9996C12.8951 20.0007 12.8852 19.9997 12.8757 19.9969C12.8662 19.9941 12.8573 19.9894 12.8497 19.9831C12.842 19.9768 12.8356 19.9691 12.831 19.9603C12.8263 19.9516 12.8234 19.942 12.8225 19.9321L10.745 12.3646C10.745 12.3646 10.745 12.3646 10.745 12.3271L14.2475 8.82463C14.3704 8.68115 14.4346 8.49659 14.4273 8.30783C14.42 8.11908 14.3417 7.94002 14.2082 7.80645C14.0746 7.67288 13.8955 7.59463 13.7068 7.58734C13.518 7.58005 13.3335 7.64425 13.19 7.76712L9.68749 11.2696H9.64999L2.06749 9.17712C2.05762 9.17619 2.04804 9.1733 2.03929 9.16864C2.03055 9.16398 2.02281 9.15762 2.01653 9.14995C2.01026 9.14228 2.00556 9.13344 2.00272 9.12395C1.99988 9.11445 1.99895 9.10448 1.99999 9.09462C1.9982 9.05667 2.00899 9.01919 2.03069 8.98799C2.05239 8.9568 2.08378 8.93365 2.11999 8.92212L19.8425 1.99962C19.8624 1.98874 19.8853 1.98459 19.9078 1.98782C19.9302 1.99104 19.9511 2.00146 19.9671 2.01751C19.9832 2.03356 19.9936 2.05437 19.9968 2.07684C20 2.0993 19.9959 2.12221 19.985 2.14212L20 2.15712Z" fill="#675D59"/>
</g>
</svg>
