<svg width="48" height="48" viewBox="0 0 48 48" fill="none" xmlns="http://www.w3.org/2000/svg">
<g id="Layer_1" clip-path="url(#clip0_2608_6529)">
<g id="Group">
<path id="Vector" d="M34.6667 18.6667C33.8667 18.6667 33.3333 19.2 33.3333 20V35.7334C33.3333 36.8 32.5333 37.3334 31.7333 37.3334H16.2667C15.2 37.3334 14.6667 36.5334 14.6667 35.7334V20C14.6667 19.2 14.1333 18.6667 13.3333 18.6667C12.5333 18.6667 12 19.2 12 20V35.7334C12 38.1334 13.8667 40 16.2667 40H31.4667C33.8667 40 35.7333 38.1334 35.7333 35.7334V20C36 19.2 35.4667 18.6667 34.6667 18.6667Z" fill="#F48C8A"/>
<path id="Vector_2" d="M21.8659 33.3334V20C21.8659 19.2 21.3326 18.6667 20.7992 18.6667C20.2659 18.6667 19.1992 19.2 19.1992 20V33.3334C19.1992 34.1334 19.7326 34.6667 20.5326 34.6667C21.3326 34.6667 21.8659 34.1334 21.8659 33.3334Z" fill="#F48C8A"/>
<path id="Vector_3" d="M28.7995 33.3334V20C28.7995 19.2 27.9995 18.6667 27.1995 18.6667C26.3995 18.6667 26.1328 19.2 26.1328 20V33.3334C26.1328 34.1334 26.6661 34.6667 27.1995 34.6667C27.7328 34.6667 28.7995 34.1334 28.7995 33.3334Z" fill="#F48C8A"/>
<path id="Vector_4" d="M37.333 13.3333H30.6663V11.4667C30.6663 9.6 29.0663 8 27.1997 8H20.7997C18.933 8 17.333 9.6 17.333 11.4667V13.3333H10.6663C9.86634 13.3333 9.33301 13.8667 9.33301 14.6667C9.33301 15.4667 9.86634 16 10.6663 16H37.333C38.133 16 38.6663 15.4667 38.6663 14.6667C38.6663 13.8667 38.133 13.3333 37.333 13.3333ZM19.9997 11.4667C19.9997 10.9333 20.2663 10.6667 20.7997 10.6667H27.1997C27.733 10.6667 27.9997 10.9333 27.9997 11.4667V13.3333H19.9997V11.4667Z" fill="#F48C8A"/>
</g>
</g>
<defs>
<clipPath id="clip0_2608_6529">
<rect width="48" height="48" fill="white"/>
</clipPath>
</defs>
</svg>
